#N canvas 170 25 950 754 10;
#N canvas 96 22 1130 754 buchla 0;
#X obj 100 101 cnv 15 500 750 empty empty empty 20 12 0 14 -191407
-66577 0;
#X obj 426 343 cnv 15 150 150 empty empty empty 20 12 0 14 -1472 -66577
0;
#X obj 437 693 cnv 15 150 150 empty empty empty 20 12 0 14 -1472 -66577
0;
#X obj 504 168 cnv 15 50 50 empty empty empty 20 12 0 14 -1472 -66577
0;
#X obj 384 166 cnv 15 75 75 empty empty empty 20 12 0 14 -1472 -66577
0;
#X obj 208 242 cnv 15 75 75 empty empty empty 20 12 0 14 -1472 -66577
0;
#X obj 134 418 cnv 15 75 75 empty empty empty 20 12 0 14 -1472 -66577
0;
#X obj 290 418 cnv 15 75 75 empty empty empty 20 12 0 14 -1472 -66577
0;
#X obj 518 521 cnv 15 50 50 empty empty empty 20 12 0 14 -1472 -66577
0;
#X obj 398 520 cnv 15 75 75 empty empty empty 20 12 0 14 -1472 -66577
0;
#X obj 218 598 cnv 15 75 75 empty empty empty 20 12 0 14 -1472 -66577
0;
#X obj 141 769 cnv 15 75 75 empty empty empty 20 12 0 14 -1472 -66577
0;
#X obj 290 769 cnv 15 75 75 empty empty empty 20 12 0 14 -1472 -66577
0;
#X coords 0 -1 1 1 504 750 1 100 100;
#X restore 354 -23 pd buchla;
#N canvas 65 22 993 514 full 0;
#N canvas 116 22 1157 756 face 0;
#X obj 643 54 *~ 0.5;
#N canvas 156 113 1204 743 osc 0;
#X obj 53 1065 outlet~;
#X obj 106 1065 outlet~;
#X obj 158 1066 outlet~;
#X obj 211 1066 outlet~;
#X obj 415 857 *~;
#X obj 328 867 *~;
#X obj 318 808 osc~;
#X obj 399 883 +~;
#X obj 276 590 vsl 15 128 0 -1 0 0 empty empty empty 0 -9 0 10 -262144
-1 -1 3604 1;
#X floatatom 276 767 5 0 0 0 - - -;
#X obj 276 727 * -1;
#X obj 276 747 abs;
#X floatatom 730 726 5 0 0 0 - - -;
#X floatatom 277 565 5 0 0 0 - - -;
#X obj 277 543 - 1;
#X obj 44 721 *~;
#X obj 45 746 osc~;
#X obj 67 687 *~;
#X msg -29 931 connect 1 2;
#X msg -186 823 connect 0 2;
#X msg -149 937 disconnect 1 2;
#X msg -149 903 disconnect 0 2;
#X floatatom 326 737 5 0 0 0 - - -;
#X floatatom 367 737 5 0 0 0 - - -;
#X obj 367 1043 *~ 2;
#X obj 367 1068 /~ 1;
#X obj 730 702 * -1;
#X floatatom 444 748 5 0 0 0 - - -;
#X msg 549 613 0;
#X obj 443 721 +;
#X obj 444 769 spigot;
#X obj 451 570 tgl 15 0 empty empty empty 17 7 0 10 -262144 -1 -1 0
1;
#X obj 444 631 sel 1;
#X msg 445 675 0;
#X msg 658 711 1;
#X obj 679 676 bng 15 250 50 0 empty empty empty 17 7 0 10 -262144
-1 -1;
#X obj 362 766 spigot;
#X obj 391 674 tgl 15 0 empty empty empty 17 7 0 10 -262144 -1 -1 1
1;
#X obj 384 600 sel 0;
#X msg 387 626 1;
#X obj 421 568 bng 15 250 50 0 empty empty empty 17 7 0 10 -262144
-1 -1;
#X msg 402 543 0;
#X obj 138 612 loadbang;
#X obj -20 788 *~;
#X obj -19 813 osc~;
#X obj 3 754 *~;
#X obj -20 667 exp;
#X floatatom -24 706 5 0 0 0 - - -;
#X obj 328 1000 matrix~ 3 3;
#X msg -153 964 disconnect 2 2;
#X msg -197 849 connect 2 2;
#X obj -109 592 *~;
#N canvas 132 38 1065 457 mat 0;
#X obj 687 160 matrix~ 7 2;
#X obj 582 298 outlet~;
#X obj 544 38 inlet~;
#X obj 660 299 outlet~;
#X obj 590 65 r~ sine;
#X obj 641 64 r~ wave 1;
#X obj 706 64 r~ squ;
#N canvas 467 157 450 300 cmd 0;
#X obj 48 243 outlet;
#X obj 144 245 outlet;
#X obj 103 102 tgl 20 0 empty empty SINE 7 26 2 12 -4032 -258113 -64
0 1;
#X obj 122 102 bng 20 250 50 0 empty empty empty 17 7 0 10 -262144
-258113 -1;
#X obj 36 124 sel 1;
#X obj 87 187 bng 15 250 50 0 empty empty empty 17 7 0 10 -262144 -1
-1;
#X obj 23 184 bng 15 250 50 0 empty empty empty 17 7 0 10 -262144 -1
-1;
#X floatatom 87 168 5 0 0 0 - - -;
#X floatatom 22 164 5 0 0 0 - - -;
#X obj 37 4 inlet;
#X obj 271 228 bng 15 250 50 0 empty empty empty 17 7 0 10 -262144
-1 -1;
#X obj 417 231 bng 15 250 50 0 empty empty empty 17 7 0 10 -262144
-1 -1;
#X msg 154 216 connect 1 1;
#X msg 50 215 disconnect 1 1;
#X obj 297 84 r clock;
#X obj 239 135 spigot;
#X connect 2 0 4 0;
#X connect 2 0 15 1;
#X connect 4 0 7 0;
#X connect 4 1 8 0;
#X connect 5 0 12 0;
#X connect 6 0 13 0;
#X connect 7 0 5 0;
#X connect 8 0 6 0;
#X connect 9 0 2 0;
#X connect 12 0 1 0;
#X connect 12 0 11 0;
#X connect 13 0 0 0;
#X connect 13 0 10 0;
#X connect 14 0 15 0;
#X connect 15 0 3 0;
#X coords 0 -1 1 1 45 33 1 100 100;
#X restore 102 135 pd cmd;
#X obj 751 63 r~ sine1;
#X obj 872 64 r~ saw;
#N canvas 467 157 450 300 cmd 0;
#X obj 48 243 outlet;
#X obj 144 245 outlet;
#X obj 103 102 tgl 20 0 empty empty W/S 9 26 2 12 -4032 -258113 -64
0 1;
#X obj 122 102 bng 20 250 50 0 empty empty empty 17 7 0 10 -262144
-258113 -1;
#X obj 36 124 sel 1;
#X obj 87 187 bng 15 250 50 0 empty empty empty 17 7 0 10 -262144 -1
-1;
#X obj 23 184 bng 15 250 50 0 empty empty empty 17 7 0 10 -262144 -1
-1;
#X floatatom 87 168 5 0 0 0 - - -;
#X floatatom 22 164 5 0 0 0 - - -;
#X obj 37 4 inlet;
#X obj 271 228 bng 15 250 50 0 empty empty empty 17 7 0 10 -262144
-1 -1;
#X obj 417 231 bng 15 250 50 0 empty empty empty 17 7 0 10 -262144
-1 -1;
#X msg 50 215 disconnect 2 1;
#X msg 154 216 connect 2 1;
#X obj 307 94 r clock;
#X obj 249 145 spigot;
#X connect 2 0 4 0;
#X connect 2 0 15 1;
#X connect 4 0 7 0;
#X connect 4 1 8 0;
#X connect 5 0 13 0;
#X connect 6 0 12 0;
#X connect 7 0 5 0;
#X connect 8 0 6 0;
#X connect 9 0 2 0;
#X connect 12 0 0 0;
#X connect 12 0 10 0;
#X connect 13 0 1 0;
#X connect 13 0 11 0;
#X connect 14 0 15 0;
#X connect 15 0 3 0;
#X coords 0 -1 1 1 45 33 1 100 100;
#X restore 146 135 pd cmd;
#N canvas 467 157 450 300 cmd 0;
#X obj 48 243 outlet;
#X obj 144 245 outlet;
#X obj 102 101 tgl 20 0 empty empty SQR 9 26 2 12 -4032 -258113 -64
0 1;
#X obj 121 101 bng 20 250 50 0 empty empty 2 21 10 2 14 -262144 -258113
-64;
#X obj 36 124 sel 1;
#X obj 87 187 bng 15 250 50 0 empty empty empty 17 7 0 10 -262144 -1
-1;
#X obj 23 184 bng 15 250 50 0 empty empty empty 17 7 0 10 -262144 -1
-1;
#X floatatom 87 168 5 0 0 0 - - -;
#X floatatom 22 164 5 0 0 0 - - -;
#X obj 37 4 inlet;
#X obj 271 228 bng 15 250 50 0 empty empty empty 17 7 0 10 -262144
-1 -1;
#X obj 417 231 bng 15 250 50 0 empty empty empty 17 7 0 10 -262144
-1 -1;
#X msg 50 215 disconnect 3 1;
#X msg 154 216 connect 3 1;
#X obj 208 77 r clock;
#X obj 210 113 spigot;
#X connect 2 0 4 0;
#X connect 2 0 15 1;
#X connect 4 0 7 0;
#X connect 4 1 8 0;
#X connect 5 0 13 0;
#X connect 6 0 12 0;
#X connect 7 0 5 0;
#X connect 8 0 6 0;
#X connect 9 0 2 0;
#X connect 12 0 0 0;
#X connect 12 0 10 0;
#X connect 13 0 1 0;
#X connect 13 0 11 0;
#X connect 14 0 15 0;
#X connect 15 0 3 0;
#X coords 0 -1 1 1 50 33 1 100 100;
#X restore 193 136 pd cmd;
#N canvas 467 157 450 300 cmd 0;
#X obj 48 243 outlet;
#X obj 144 245 outlet;
#X obj 103 101 tgl 20 0 empty empty SINE 8 26 2 12 -4032 -258113 -64
0 1;
#X obj 122 101 bng 20 250 50 0 empty empty empty 17 7 0 10 -262144
-258113 -1;
#X obj 36 124 sel 1;
#X obj 87 187 bng 15 250 50 0 empty empty empty 17 7 0 10 -262144 -1
-1;
#X obj 23 184 bng 15 250 50 0 empty empty empty 17 7 0 10 -262144 -1
-1;
#X floatatom 87 168 5 0 0 0 - - -;
#X floatatom 22 164 5 0 0 0 - - -;
#X obj 37 4 inlet;
#X obj 271 228 bng 15 250 50 0 empty empty empty 17 7 0 10 -262144
-1 -1;
#X obj 417 231 bng 15 250 50 0 empty empty empty 17 7 0 10 -262144
-1 -1;
#X msg 50 215 disconnect 4 1;
#X msg 154 216 connect 4 1;
#X obj 218 66 r clock;
#X obj 219 93 spigot;
#X connect 2 0 4 0;
#X connect 2 0 15 1;
#X connect 4 0 7 0;
#X connect 4 1 8 0;
#X connect 5 0 13 0;
#X connect 6 0 12 0;
#X connect 7 0 5 0;
#X connect 8 0 6 0;
#X connect 9 0 2 0;
#X connect 12 0 0 0;
#X connect 12 0 10 0;
#X connect 13 0 1 0;
#X connect 13 0 11 0;
#X connect 14 0 15 0;
#X connect 15 0 3 0;
#X coords 0 -1 1 1 45 33 1 100 100;
#X restore 102 102 pd cmd;
#N canvas 467 157 450 300 cmd 0;
#X obj 48 243 outlet;
#X obj 144 245 outlet;
#X obj 103 101 tgl 20 0 empty empty W/S 9 26 2 12 -4032 -258113 -64
0 1;
#X obj 122 101 bng 20 250 50 0 empty empty empty 17 7 0 10 -262144
-258113 -1;
#X obj 36 124 sel 1;
#X obj 87 187 bng 15 250 50 0 empty empty empty 17 7 0 10 -262144 -1
-1;
#X obj 23 184 bng 15 250 50 0 empty empty empty 17 7 0 10 -262144 -1
-1;
#X floatatom 87 168 5 0 0 0 - - -;
#X floatatom 22 164 5 0 0 0 - - -;
#X obj 37 4 inlet;
#X obj 271 228 bng 15 250 50 0 empty empty empty 17 7 0 10 -262144
-1 -1;
#X obj 417 231 bng 15 250 50 0 empty empty empty 17 7 0 10 -262144
-1 -1;
#X msg 50 215 disconnect 5 1;
#X msg 154 216 connect 5 1;
#X obj 204 63 r clock;
#X obj 205 90 spigot;
#X connect 2 0 4 0;
#X connect 2 0 15 1;
#X connect 4 0 7 0;
#X connect 4 1 8 0;
#X connect 5 0 13 0;
#X connect 6 0 12 0;
#X connect 7 0 5 0;
#X connect 8 0 6 0;
#X connect 9 0 2 0;
#X connect 12 0 0 0;
#X connect 12 0 10 0;
#X connect 13 0 1 0;
#X connect 13 0 11 0;
#X connect 14 0 15 0;
#X connect 15 0 3 0;
#X coords 0 -1 1 1 45 33 1 100 100;
#X restore 148 102 pd cmd;
#N canvas 467 157 450 300 cmd 0;
#X obj 48 243 outlet;
#X obj 144 245 outlet;
#X obj 101 101 tgl 20 0 empty empty SAW 9 26 2 12 -4032 -258113 -64
0 1;
#X obj 120 101 bng 20 250 50 0 empty empty 1 21 10 2 14 -262144 -258113
-64;
#X obj 36 124 sel 1;
#X obj 87 187 bng 15 250 50 0 empty empty empty 17 7 0 10 -262144 -1
-1;
#X obj 23 184 bng 15 250 50 0 empty empty empty 17 7 0 10 -262144 -1
-1;
#X floatatom 87 168 5 0 0 0 - - -;
#X floatatom 22 164 5 0 0 0 - - -;
#X obj 37 4 inlet;
#X obj 271 228 bng 15 250 50 0 empty empty empty 17 7 0 10 -262144
-1 -1;
#X obj 417 231 bng 15 250 50 0 empty empty empty 17 7 0 10 -262144
-1 -1;
#X msg 50 215 disconnect 6 1;
#X msg 154 216 connect 6 1;
#X obj 217 52 r clock;
#X obj 218 79 spigot;
#X connect 2 0 4 0;
#X connect 2 0 15 1;
#X connect 4 0 7 0;
#X connect 4 1 8 0;
#X connect 5 0 13 0;
#X connect 6 0 12 0;
#X connect 7 0 5 0;
#X connect 8 0 6 0;
#X connect 9 0 2 0;
#X connect 12 0 0 0;
#X connect 12 0 10 0;
#X connect 13 0 1 0;
#X connect 13 0 11 0;
#X connect 14 0 15 0;
#X connect 15 0 3 0;
#X coords 0 -1 1 1 50 33 1 100 100;
#X restore 194 102 pd cmd;
#X msg 254 44 disconnect 0 1;
#X obj 375 27 loadbang;
#X msg 374 72 connect 0 0;
#X obj 776 229 *~;
#X msg 360 191 connect 0 1;
#X obj 807 64 r~ wave2;
#X connect 0 0 1 0;
#X connect 0 0 18 0;
#X connect 0 1 18 1;
#X connect 2 0 0 0;
#X connect 4 0 0 1;
#X connect 5 0 0 2;
#X connect 6 0 0 3;
#X connect 7 0 0 0;
#X connect 7 0 17 0;
#X connect 7 1 0 0;
#X connect 7 1 19 0;
#X connect 8 0 0 4;
#X connect 9 0 0 6;
#X connect 10 0 0 0;
#X connect 10 0 17 0;
#X connect 10 1 0 0;
#X connect 10 1 19 0;
#X connect 11 0 0 0;
#X connect 11 0 17 0;
#X connect 11 1 0 0;
#X connect 11 1 19 0;
#X connect 12 0 0 0;
#X connect 12 0 17 0;
#X connect 12 1 19 0;
#X connect 12 1 0 0;
#X connect 13 0 0 0;
#X connect 13 0 17 0;
#X connect 13 1 19 0;
#X connect 13 1 0 0;
#X connect 14 0 0 0;
#X connect 14 0 17 0;
#X connect 14 1 0 0;
#X connect 14 1 19 0;
#X connect 16 0 17 0;
#X connect 17 0 0 0;
#X connect 18 0 3 0;
#X connect 20 0 0 5;
#X coords 0 -1 1 1 145 70 1 100 100;
#X restore 100 282 pd mat;
#X obj 425 297 knob 150 150 5 20000 1 0 empty empty FREQ 0 -8 2 12
-4160 -1 -64 700 1;
#X obj 384 120 knob 75 75 0 1 0 0 empty empty WAVESHAPE 0 -8 2 12 -262144
-1 -64 5300 1;
#X obj 503 122 knob 50 50 5 -5 0 0 empty empty TRIM 0 -8 2 12 -262144
-1 -64 2450 1;
#X obj 207 196 knob 75 75 0 1 0 0 empty empty FM_IN 0 -8 2 12 -262144
-1 -64 5000 1;
#X obj 133 372 knob 75 75 0 11 0 0 empty empty FM_EXP 0 -8 2 12 -262144
-1 -64 6200 1;
#X obj 291 372 knob 75 75 0 10000 0 0 empty empty FM_LIN 0 -8 2 12
-262144 -1 -64 6300 1;
#X obj 342 838 s~ sine1;
#X obj 591 983 s~ saw;
#X obj 450 799 phasor~;
#X obj 515 1030 send~ wave2;
#X obj 450 821 /~ 0.5;
#X obj 448 872 -~ 1;
#X obj 448 848 *~ 1;
#X obj 446 894 tanh~;
#X obj 445 917 *~ 1.3;
#N canvas 264 22 818 586 drift 0;
#X obj 91 212 random 100;
#X obj 91 256 moses 5;
#X obj 157 256 moses 10;
#X obj 233 256 moses 20;
#X obj 309 256 moses 30;
#X obj 389 256 moses 60;
#X obj 91 314 bng 15 250 50 0 empty empty empty 17 7 0 10 -262144 -1
-1;
#X obj 90 190 bng 15 250 50 0 empty empty empty 17 7 0 10 -262144 -1
-1;
#X obj 157 314 bng 15 250 50 0 empty empty empty 17 7 0 10 -262144
-1 -1;
#X obj 233 314 bng 15 250 50 0 empty empty empty 17 7 0 10 -262144
-1 -1;
#X obj 309 314 bng 15 250 50 0 empty empty empty 17 7 0 10 -262144
-1 -1;
#X obj 389 314 bng 15 250 50 0 empty empty empty 17 7 0 10 -262144
-1 -1;
#X obj 434 314 bng 15 250 50 0 empty empty empty 17 7 0 10 -262144
-1 -1;
#X obj 91 84 bng 15 250 50 0 empty empty empty 17 7 0 10 -262144 -1
-1;
#X obj 90 166 delay;
#X floatatom 93 125 5 0 0 0 - - -;
#X obj 231 4 inlet;
#X floatatom 263 213 5 0 0 0 - - -;
#X obj 443 345 + 3;
#X obj 386 346 - 3;
#X floatatom 385 368 5 0 0 0 - - -;
#X floatatom 443 369 5 0 0 0 - - -;
#X floatatom 387 434 5 0 0 0 - - -;
#X obj 387 412 f;
#X floatatom 441 436 5 0 0 0 - - -;
#X obj 443 412 f;
#X obj 91 145 * 10000;
#X floatatom 236 372 5 0 0 0 - - -;
#X floatatom 294 373 5 0 0 0 - - -;
#X floatatom 238 438 5 0 0 0 - - -;
#X obj 238 416 f;
#X floatatom 292 440 5 0 0 0 - - -;
#X obj 294 416 f;
#X obj 294 349 + 5;
#X obj 237 350 - 5;
#X floatatom 91 369 5 0 0 0 - - -;
#X floatatom 149 370 5 0 0 0 - - -;
#X floatatom 93 435 5 0 0 0 - - -;
#X obj 93 413 f;
#X floatatom 147 437 5 0 0 0 - - -;
#X obj 149 413 f;
#X obj 149 346 + 7;
#X obj 92 347 - 11;
#X obj 163 532 outlet;
#X obj 93 104 random 60;
#X obj 92 62 delay;
#X obj 94 -27 loadbang;
#X msg 525 59;
#X obj 93 41 * 1000;
#X obj 93 20 + 30;
#X obj 94 -3 random 60;
#X obj 24 435 bng 15 250 50 0 empty empty empty 17 7 0 10 -262144 -1
-1;
#X obj 24 411 delay;
#X obj 25 390 * 1000;
#X obj 26 346 random 60;
#X obj 25 369 + 15;
#X connect 0 0 1 0;
#X connect 1 0 6 0;
#X connect 1 1 2 0;
#X connect 2 0 8 0;
#X connect 2 1 3 0;
#X connect 3 0 9 0;
#X connect 3 1 4 0;
#X connect 4 0 10 0;
#X connect 4 1 5 0;
#X connect 5 0 11 0;
#X connect 5 1 12 0;
#X connect 6 0 38 0;
#X connect 6 0 54 0;
#X connect 7 0 0 0;
#X connect 8 0 40 0;
#X connect 8 0 54 0;
#X connect 9 0 30 0;
#X connect 9 0 54 0;
#X connect 10 0 32 0;
#X connect 10 0 54 0;
#X connect 11 0 23 0;
#X connect 11 0 54 0;
#X connect 12 0 25 0;
#X connect 12 0 54 0;
#X connect 13 0 44 0;
#X connect 14 0 7 0;
#X connect 15 0 26 0;
#X connect 16 0 17 0;
#X connect 17 0 18 0;
#X connect 17 0 19 0;
#X connect 17 0 33 0;
#X connect 17 0 34 0;
#X connect 17 0 41 0;
#X connect 17 0 42 0;
#X connect 18 0 21 0;
#X connect 19 0 20 0;
#X connect 20 0 23 1;
#X connect 21 0 25 1;
#X connect 22 0 43 0;
#X connect 23 0 22 0;
#X connect 24 0 43 0;
#X connect 25 0 24 0;
#X connect 26 0 14 0;
#X connect 27 0 30 1;
#X connect 28 0 32 1;
#X connect 29 0 43 0;
#X connect 30 0 29 0;
#X connect 31 0 43 0;
#X connect 32 0 31 0;
#X connect 33 0 28 0;
#X connect 34 0 27 0;
#X connect 35 0 38 1;
#X connect 36 0 40 1;
#X connect 37 0 43 0;
#X connect 38 0 37 0;
#X connect 39 0 43 0;
#X connect 40 0 39 0;
#X connect 41 0 36 0;
#X connect 42 0 35 0;
#X connect 44 0 15 0;
#X connect 45 0 13 0;
#X connect 46 0 50 0;
#X connect 48 0 45 0;
#X connect 49 0 48 0;
#X connect 50 0 49 0;
#X connect 51 0 13 0;
#X connect 52 0 51 0;
#X connect 53 0 52 0;
#X connect 54 0 55 0;
#X connect 55 0 53 0;
#X restore 511 672 pd drift;
#N canvas 132 38 1065 457 mat 0;
#X obj 687 160 matrix~ 7 2;
#X obj 582 298 outlet~;
#X obj 544 38 inlet~;
#X obj 660 299 outlet~;
#X obj 590 65 r~ sine;
#X obj 641 64 r~ wave 1;
#X obj 706 64 r~ squ;
#X obj 751 63 r~ sine1;
#X obj 872 64 r~ saw;
#X obj 463 295 outlet;
#X obj 407 295 outlet;
#X obj 807 64 r~ wave2;
#N canvas 467 157 450 300 (subpatch) 0;
#X obj 48 243 outlet;
#X obj 144 245 outlet;
#X obj 102 102 tgl 20 0 empty empty W/S 13 26 2 12 -4032 -258113 -64
0 1;
#X obj 121 102 bng 20 250 50 0 empty empty empty 17 7 0 10 -262144
-258113 -1;
#X obj 36 124 sel 1;
#X obj 87 187 bng 15 250 50 0 empty empty empty 17 7 0 10 -262144 -1
-1;
#X obj 23 184 bng 15 250 50 0 empty empty empty 17 7 0 10 -262144 -1
-1;
#X floatatom 87 168 5 0 0 0 - - -;
#X floatatom 22 164 5 0 0 0 - - -;
#X obj 37 4 inlet;
#X obj 271 228 bng 15 250 50 0 empty empty empty 17 7 0 10 -262144
-1 -1;
#X obj 417 231 bng 15 250 50 0 empty empty empty 17 7 0 10 -262144
-1 -1;
#X msg 50 215 disconnect 2 1;
#X msg 154 216 connect 2 1;
#X obj 211 105 spigot;
#X obj 220 76 r clock;
#X connect 2 0 4 0;
#X connect 2 0 14 1;
#X connect 4 0 7 0;
#X connect 4 1 8 0;
#X connect 5 0 13 0;
#X connect 6 0 12 0;
#X connect 7 0 5 0;
#X connect 8 0 6 0;
#X connect 9 0 2 0;
#X connect 12 0 0 0;
#X connect 12 0 10 0;
#X connect 13 0 1 0;
#X connect 13 0 11 0;
#X connect 14 0 3 0;
#X connect 15 0 14 0;
#X coords 0 -1 1 1 45 35 1 100 100;
#X restore 145 138 pd 1;
#N canvas 467 157 450 300 .. 0;
#X obj 48 243 outlet;
#X obj 144 245 outlet;
#X obj 103 102 tgl 20 0 empty empty SQR 10 26 2 12 -4032 -258113 -64
0 1;
#X obj 122 102 bng 20 250 50 0 empty empty OSC_2 22 10 2 12 -262144
-258113 -64;
#X obj 36 124 sel 1;
#X obj 87 187 bng 15 250 50 0 empty empty empty 17 7 0 10 -262144 -1
-1;
#X obj 23 184 bng 15 250 50 0 empty empty empty 17 7 0 10 -262144 -1
-1;
#X floatatom 87 168 5 0 0 0 - - -;
#X floatatom 22 164 5 0 0 0 - - -;
#X obj 37 4 inlet;
#X obj 271 228 bng 15 250 50 0 empty empty empty 17 7 0 10 -262144
-1 -1;
#X obj 417 231 bng 15 250 50 0 empty empty empty 17 7 0 10 -262144
-1 -1;
#X msg 50 215 disconnect 3 1;
#X msg 154 216 connect 3 1;
#X obj 231 125 spigot;
#X obj 240 96 r clock;
#X connect 2 0 4 0;
#X connect 2 0 14 1;
#X connect 4 0 7 0;
#X connect 4 1 8 0;
#X connect 5 0 13 0;
#X connect 6 0 12 0;
#X connect 7 0 5 0;
#X connect 8 0 6 0;
#X connect 9 0 2 0;
#X connect 12 0 0 0;
#X connect 12 0 10 0;
#X connect 13 0 1 0;
#X connect 13 0 11 0;
#X connect 14 0 3 0;
#X connect 15 0 14 0;
#X coords 0 -1 1 1 80 35 1 100 100;
#X restore 192 138 pd ..;
#N canvas 467 157 450 300 ... 0;
#X obj 48 243 outlet;
#X obj 144 245 outlet;
#X obj 103 101 tgl 20 0 empty empty SINE 10 26 2 12 -4032 -258113 -64
0 1;
#X obj 122 101 bng 20 250 50 0 empty empty empty 17 7 0 10 -262144
-258113 -1;
#X obj 36 124 sel 1;
#X obj 87 187 bng 15 250 50 0 empty empty empty 17 7 0 10 -262144 -1
-1;
#X obj 23 184 bng 15 250 50 0 empty empty empty 17 7 0 10 -262144 -1
-1;
#X floatatom 87 168 5 0 0 0 - - -;
#X floatatom 22 164 5 0 0 0 - - -;
#X obj 37 4 inlet;
#X obj 271 228 bng 15 250 50 0 empty empty empty 17 7 0 10 -262144
-1 -1;
#X obj 417 231 bng 15 250 50 0 empty empty empty 17 7 0 10 -262144
-1 -1;
#X msg 50 215 disconnect 4 1;
#X msg 154 216 connect 4 1;
#X obj 205 82 spigot;
#X obj 214 53 r clock;
#X connect 2 0 4 0;
#X connect 2 0 14 1;
#X connect 4 0 7 0;
#X connect 4 1 8 0;
#X connect 5 0 13 0;
#X connect 6 0 12 0;
#X connect 7 0 5 0;
#X connect 8 0 6 0;
#X connect 9 0 2 0;
#X connect 12 0 0 0;
#X connect 12 0 10 0;
#X connect 13 0 1 0;
#X connect 13 0 11 0;
#X connect 14 0 3 0;
#X connect 15 0 14 0;
#X coords 0 -1 1 1 45 33 1 100 100;
#X restore 100 102 pd ...;
#N canvas 467 157 450 300 ... 0;
#X obj 48 243 outlet;
#X obj 144 245 outlet;
#X obj 102 101 tgl 20 0 empty empty W/S 12 26 2 12 -4032 -258113 -64
0 1;
#X obj 121 101 bng 20 250 50 0 empty empty empty 17 7 0 10 -262144
-258113 -1;
#X obj 36 124 sel 1;
#X obj 87 187 bng 15 250 50 0 empty empty empty 17 7 0 10 -262144 -1
-1;
#X obj 23 184 bng 15 250 50 0 empty empty empty 17 7 0 10 -262144 -1
-1;
#X floatatom 87 168 5 0 0 0 - - -;
#X floatatom 22 164 5 0 0 0 - - -;
#X obj 37 4 inlet;
#X obj 271 228 bng 15 250 50 0 empty empty empty 17 7 0 10 -262144
-1 -1;
#X obj 417 231 bng 15 250 50 0 empty empty empty 17 7 0 10 -262144
-1 -1;
#X msg 50 215 disconnect 5 1;
#X msg 154 216 connect 5 1;
#X obj 199 68 spigot;
#X obj 208 39 r clock;
#X connect 2 0 4 0;
#X connect 2 0 14 1;
#X connect 4 0 7 0;
#X connect 4 1 8 0;
#X connect 5 0 13 0;
#X connect 6 0 12 0;
#X connect 7 0 5 0;
#X connect 8 0 6 0;
#X connect 9 0 2 0;
#X connect 12 0 0 0;
#X connect 12 0 10 0;
#X connect 13 0 1 0;
#X connect 13 0 11 0;
#X connect 14 0 3 0;
#X connect 15 0 14 0;
#X coords 0 -1 1 1 45 33 1 100 100;
#X restore 146 103 pd ...;
#N canvas 467 157 450 300 ... 0;
#X obj 48 243 outlet;
#X obj 144 245 outlet;
#X obj 102 101 tgl 20 0 empty empty SAW 10 26 2 12 -4032 -258113 -64
0 1;
#X obj 121 101 bng 20 250 50 0 empty empty OSC_1 22 10 2 12 -262144
-258113 -64;
#X obj 36 124 sel 1;
#X obj 87 187 bng 15 250 50 0 empty empty empty 17 7 0 10 -262144 -1
-1;
#X obj 23 184 bng 15 250 50 0 empty empty empty 17 7 0 10 -262144 -1
-1;
#X floatatom 87 168 5 0 0 0 - - -;
#X floatatom 22 164 5 0 0 0 - - -;
#X obj 37 4 inlet;
#X obj 271 228 bng 15 250 50 0 empty empty empty 17 7 0 10 -262144
-1 -1;
#X obj 417 231 bng 15 250 50 0 empty empty empty 17 7 0 10 -262144
-1 -1;
#X msg 50 215 disconnect 6 1;
#X msg 154 216 connect 6 1;
#X obj 212 56 spigot;
#X obj 221 27 r clock;
#X connect 2 0 4 0;
#X connect 2 0 14 1;
#X connect 4 0 7 0;
#X connect 4 1 8 0;
#X connect 5 0 13 0;
#X connect 6 0 12 0;
#X connect 7 0 5 0;
#X connect 8 0 6 0;
#X connect 9 0 2 0;
#X connect 12 0 0 0;
#X connect 12 0 10 0;
#X connect 13 0 1 0;
#X connect 13 0 11 0;
#X connect 14 0 3 0;
#X connect 15 0 14 0;
#X coords 0 -1 1 1 80 33 1 100 100;
#X restore 193 104 pd ...;
#N canvas 467 157 450 300 (subpatch) 0;
#X obj 48 243 outlet;
#X obj 144 245 outlet;
#X obj 102 101 tgl 20 0 empty empty SINE 8 26 2 12 -4032 -258113 -64
0 1;
#X obj 121 101 bng 20 250 50 0 empty empty empty 17 7 0 10 -262144
-258113 -1;
#X obj 36 124 sel 1;
#X obj 87 187 bng 15 250 50 0 empty empty empty 17 7 0 10 -262144 -1
-1;
#X obj 23 184 bng 15 250 50 0 empty empty empty 17 7 0 10 -262144 -1
-1;
#X floatatom 87 168 5 0 0 0 - - -;
#X floatatom 22 164 5 0 0 0 - - -;
#X obj 37 4 inlet;
#X obj 271 228 bng 15 250 50 0 empty empty empty 17 7 0 10 -262144
-1 -1;
#X obj 417 231 bng 15 250 50 0 empty empty empty 17 7 0 10 -262144
-1 -1;
#X msg 154 216 connect 1 1;
#X msg 50 215 disconnect 1 1;
#X obj 232 134 spigot;
#X obj 226 99 r clock;
#X connect 2 0 4 0;
#X connect 2 0 14 1;
#X connect 4 0 7 0;
#X connect 4 1 8 0;
#X connect 5 0 12 0;
#X connect 6 0 13 0;
#X connect 7 0 5 0;
#X connect 8 0 6 0;
#X connect 9 0 2 0;
#X connect 12 0 1 0;
#X connect 12 0 11 0;
#X connect 13 0 0 0;
#X connect 13 0 10 0;
#X connect 14 0 3 0;
#X connect 15 0 14 0;
#X coords 0 -1 1 1 45 33 1 100 100;
#X restore 100 138 pd;
#X obj 207 343 metro 500;
#X obj 207 325 tgl 15 0 empty empty empty 17 7 0 10 -262144 -1 -1 1
1;
#X obj 206 365 send clock;
#X obj 206 285 loadbang;
#X msg 207 304 1;
#X connect 0 1 3 0;
#X connect 2 0 0 0;
#X connect 4 0 0 1;
#X connect 5 0 0 2;
#X connect 6 0 0 3;
#X connect 7 0 0 4;
#X connect 8 0 0 6;
#X connect 11 0 0 5;
#X connect 12 0 0 0;
#X connect 12 0 10 0;
#X connect 12 1 0 0;
#X connect 12 1 9 0;
#X connect 13 0 0 0;
#X connect 13 0 10 0;
#X connect 13 1 0 0;
#X connect 13 1 9 0;
#X connect 14 0 0 0;
#X connect 14 0 10 0;
#X connect 14 1 9 0;
#X connect 14 1 0 0;
#X connect 15 0 0 0;
#X connect 15 0 10 0;
#X connect 15 1 9 0;
#X connect 15 1 0 0;
#X connect 16 0 0 0;
#X connect 16 0 10 0;
#X connect 16 1 0 0;
#X connect 16 1 9 0;
#X connect 17 0 0 0;
#X connect 17 0 10 0;
#X connect 17 1 0 0;
#X connect 17 1 9 0;
#X connect 18 0 20 0;
#X connect 19 0 18 0;
#X connect 21 0 22 0;
#X connect 22 0 19 0;
#X coords 0 -1 1 1 175 75 1 100 100;
#X restore 159 103 pd mat;
#X obj 392 799 loadbang;
#X msg 392 819 1;
#N canvas 132 38 1065 457 mat 0;
#X obj 687 160 matrix~ 7 2;
#X obj 582 298 outlet~;
#X obj 544 38 inlet~;
#X obj 660 299 outlet~;
#X obj 590 65 r~ sine;
#X obj 641 64 r~ wave 1;
#X obj 706 64 r~ squ;
#N canvas 467 157 450 300 cmd 0;
#X obj 48 243 outlet;
#X obj 144 245 outlet;
#X obj 103 102 tgl 20 0 empty empty SINE 7 26 2 12 -4032 -258113 -64
0 1;
#X obj 122 102 bng 20 250 50 0 empty empty empty 17 7 0 10 -262144
-258113 -1;
#X obj 36 124 sel 1;
#X obj 87 187 bng 15 250 50 0 empty empty empty 17 7 0 10 -262144 -1
-1;
#X obj 23 184 bng 15 250 50 0 empty empty empty 17 7 0 10 -262144 -1
-1;
#X floatatom 87 168 5 0 0 0 - - -;
#X floatatom 22 164 5 0 0 0 - - -;
#X obj 37 4 inlet;
#X obj 271 228 bng 15 250 50 0 empty empty empty 17 7 0 10 -262144
-1 -1;
#X obj 417 231 bng 15 250 50 0 empty empty empty 17 7 0 10 -262144
-1 -1;
#X msg 154 216 connect 1 1;
#X msg 50 215 disconnect 1 1;
#X obj 297 84 r clock;
#X obj 239 135 spigot;
#X connect 2 0 4 0;
#X connect 2 0 15 1;
#X connect 4 0 7 0;
#X connect 4 1 8 0;
#X connect 5 0 12 0;
#X connect 6 0 13 0;
#X connect 7 0 5 0;
#X connect 8 0 6 0;
#X connect 9 0 2 0;
#X connect 12 0 1 0;
#X connect 12 0 11 0;
#X connect 13 0 0 0;
#X connect 13 0 10 0;
#X connect 14 0 15 0;
#X connect 15 0 3 0;
#X coords 0 -1 1 1 45 33 1 100 100;
#X restore 102 135 pd cmd;
#X obj 751 63 r~ sine1;
#X obj 872 64 r~ saw;
#N canvas 467 157 450 300 cmd 0;
#X obj 48 243 outlet;
#X obj 144 245 outlet;
#X obj 103 102 tgl 20 0 empty empty W/S 9 26 2 12 -4032 -258113 -64
0 1;
#X obj 122 102 bng 20 250 50 0 empty empty empty 17 7 0 10 -262144
-258113 -1;
#X obj 36 124 sel 1;
#X obj 87 187 bng 15 250 50 0 empty empty empty 17 7 0 10 -262144 -1
-1;
#X obj 23 184 bng 15 250 50 0 empty empty empty 17 7 0 10 -262144 -1
-1;
#X floatatom 87 168 5 0 0 0 - - -;
#X floatatom 22 164 5 0 0 0 - - -;
#X obj 37 4 inlet;
#X obj 271 228 bng 15 250 50 0 empty empty empty 17 7 0 10 -262144
-1 -1;
#X obj 417 231 bng 15 250 50 0 empty empty empty 17 7 0 10 -262144
-1 -1;
#X msg 50 215 disconnect 2 1;
#X msg 154 216 connect 2 1;
#X obj 307 94 r clock;
#X obj 249 145 spigot;
#X connect 2 0 4 0;
#X connect 2 0 15 1;
#X connect 4 0 7 0;
#X connect 4 1 8 0;
#X connect 5 0 13 0;
#X connect 6 0 12 0;
#X connect 7 0 5 0;
#X connect 8 0 6 0;
#X connect 9 0 2 0;
#X connect 12 0 0 0;
#X connect 12 0 10 0;
#X connect 13 0 1 0;
#X connect 13 0 11 0;
#X connect 14 0 15 0;
#X connect 15 0 3 0;
#X coords 0 -1 1 1 45 33 1 100 100;
#X restore 146 135 pd cmd;
#N canvas 467 157 450 300 cmd 0;
#X obj 48 243 outlet;
#X obj 144 245 outlet;
#X obj 102 101 tgl 20 0 empty empty SQR 9 26 2 12 -4032 -258113 -64
0 1;
#X obj 121 101 bng 20 250 50 0 empty empty 2 21 10 2 14 -262144 -258113
-64;
#X obj 36 124 sel 1;
#X obj 87 187 bng 15 250 50 0 empty empty empty 17 7 0 10 -262144 -1
-1;
#X obj 23 184 bng 15 250 50 0 empty empty empty 17 7 0 10 -262144 -1
-1;
#X floatatom 87 168 5 0 0 0 - - -;
#X floatatom 22 164 5 0 0 0 - - -;
#X obj 37 4 inlet;
#X obj 271 228 bng 15 250 50 0 empty empty empty 17 7 0 10 -262144
-1 -1;
#X obj 417 231 bng 15 250 50 0 empty empty empty 17 7 0 10 -262144
-1 -1;
#X msg 50 215 disconnect 3 1;
#X msg 154 216 connect 3 1;
#X obj 208 77 r clock;
#X obj 210 113 spigot;
#X connect 2 0 4 0;
#X connect 2 0 15 1;
#X connect 4 0 7 0;
#X connect 4 1 8 0;
#X connect 5 0 13 0;
#X connect 6 0 12 0;
#X connect 7 0 5 0;
#X connect 8 0 6 0;
#X connect 9 0 2 0;
#X connect 12 0 0 0;
#X connect 12 0 10 0;
#X connect 13 0 1 0;
#X connect 13 0 11 0;
#X connect 14 0 15 0;
#X connect 15 0 3 0;
#X coords 0 -1 1 1 50 33 1 100 100;
#X restore 193 136 pd cmd;
#N canvas 467 157 450 300 cmd 0;
#X obj 48 243 outlet;
#X obj 144 245 outlet;
#X obj 103 101 tgl 20 0 empty empty SINE 8 26 2 12 -4032 -258113 -64
0 1;
#X obj 122 101 bng 20 250 50 0 empty empty empty 17 7 0 10 -262144
-258113 -1;
#X obj 36 124 sel 1;
#X obj 87 187 bng 15 250 50 0 empty empty empty 17 7 0 10 -262144 -1
-1;
#X obj 23 184 bng 15 250 50 0 empty empty empty 17 7 0 10 -262144 -1
-1;
#X floatatom 87 168 5 0 0 0 - - -;
#X floatatom 22 164 5 0 0 0 - - -;
#X obj 37 4 inlet;
#X obj 271 228 bng 15 250 50 0 empty empty empty 17 7 0 10 -262144
-1 -1;
#X obj 417 231 bng 15 250 50 0 empty empty empty 17 7 0 10 -262144
-1 -1;
#X msg 50 215 disconnect 4 1;
#X msg 154 216 connect 4 1;
#X obj 218 66 r clock;
#X obj 219 93 spigot;
#X connect 2 0 4 0;
#X connect 2 0 15 1;
#X connect 4 0 7 0;
#X connect 4 1 8 0;
#X connect 5 0 13 0;
#X connect 6 0 12 0;
#X connect 7 0 5 0;
#X connect 8 0 6 0;
#X connect 9 0 2 0;
#X connect 12 0 0 0;
#X connect 12 0 10 0;
#X connect 13 0 1 0;
#X connect 13 0 11 0;
#X connect 14 0 15 0;
#X connect 15 0 3 0;
#X coords 0 -1 1 1 45 33 1 100 100;
#X restore 102 102 pd cmd;
#N canvas 467 157 450 300 cmd 0;
#X obj 48 243 outlet;
#X obj 144 245 outlet;
#X obj 103 101 tgl 20 0 empty empty W/S 9 26 2 12 -4032 -258113 -64
0 1;
#X obj 122 101 bng 20 250 50 0 empty empty empty 17 7 0 10 -262144
-258113 -1;
#X obj 36 124 sel 1;
#X obj 87 187 bng 15 250 50 0 empty empty empty 17 7 0 10 -262144 -1
-1;
#X obj 23 184 bng 15 250 50 0 empty empty empty 17 7 0 10 -262144 -1
-1;
#X floatatom 87 168 5 0 0 0 - - -;
#X floatatom 22 164 5 0 0 0 - - -;
#X obj 37 4 inlet;
#X obj 271 228 bng 15 250 50 0 empty empty empty 17 7 0 10 -262144
-1 -1;
#X obj 417 231 bng 15 250 50 0 empty empty empty 17 7 0 10 -262144
-1 -1;
#X msg 50 215 disconnect 5 1;
#X msg 154 216 connect 5 1;
#X obj 204 63 r clock;
#X obj 205 90 spigot;
#X connect 2 0 4 0;
#X connect 2 0 15 1;
#X connect 4 0 7 0;
#X connect 4 1 8 0;
#X connect 5 0 13 0;
#X connect 6 0 12 0;
#X connect 7 0 5 0;
#X connect 8 0 6 0;
#X connect 9 0 2 0;
#X connect 12 0 0 0;
#X connect 12 0 10 0;
#X connect 13 0 1 0;
#X connect 13 0 11 0;
#X connect 14 0 15 0;
#X connect 15 0 3 0;
#X coords 0 -1 1 1 45 33 1 100 100;
#X restore 148 102 pd cmd;
#N canvas 467 157 450 300 cmd 0;
#X obj 48 243 outlet;
#X obj 144 245 outlet;
#X obj 101 101 tgl 20 0 empty empty SAW 9 26 2 12 -4032 -258113 -64
0 1;
#X obj 120 101 bng 20 250 50 0 empty empty 1 21 10 2 14 -262144 -258113
-64;
#X obj 36 124 sel 1;
#X obj 87 187 bng 15 250 50 0 empty empty empty 17 7 0 10 -262144 -1
-1;
#X obj 23 184 bng 15 250 50 0 empty empty empty 17 7 0 10 -262144 -1
-1;
#X floatatom 87 168 5 0 0 0 - - -;
#X floatatom 22 164 5 0 0 0 - - -;
#X obj 37 4 inlet;
#X obj 271 228 bng 15 250 50 0 empty empty empty 17 7 0 10 -262144
-1 -1;
#X obj 417 231 bng 15 250 50 0 empty empty empty 17 7 0 10 -262144
-1 -1;
#X msg 50 215 disconnect 6 1;
#X msg 154 216 connect 6 1;
#X obj 217 52 r clock;
#X obj 218 79 spigot;
#X connect 2 0 4 0;
#X connect 2 0 15 1;
#X connect 4 0 7 0;
#X connect 4 1 8 0;
#X connect 5 0 13 0;
#X connect 6 0 12 0;
#X connect 7 0 5 0;
#X connect 8 0 6 0;
#X connect 9 0 2 0;
#X connect 12 0 0 0;
#X connect 12 0 10 0;
#X connect 13 0 1 0;
#X connect 13 0 11 0;
#X connect 14 0 15 0;
#X connect 15 0 3 0;
#X coords 0 -1 1 1 50 33 1 100 100;
#X restore 194 102 pd cmd;
#X msg 254 44 disconnect 0 1;
#X obj 375 27 loadbang;
#X msg 374 72 connect 0 0;
#X obj 776 229 *~;
#X msg 360 191 connect 0 1;
#X obj 807 64 r~ wave2;
#X connect 0 0 1 0;
#X connect 0 0 18 0;
#X connect 0 1 18 1;
#X connect 2 0 0 0;
#X connect 4 0 0 1;
#X connect 5 0 0 2;
#X connect 6 0 0 3;
#X connect 7 0 0 0;
#X connect 7 0 17 0;
#X connect 7 1 0 0;
#X connect 7 1 19 0;
#X connect 8 0 0 4;
#X connect 9 0 0 6;
#X connect 10 0 0 0;
#X connect 10 0 17 0;
#X connect 10 1 0 0;
#X connect 10 1 19 0;
#X connect 11 0 0 0;
#X connect 11 0 17 0;
#X connect 11 1 0 0;
#X connect 11 1 19 0;
#X connect 12 0 0 0;
#X connect 12 0 17 0;
#X connect 12 1 19 0;
#X connect 12 1 0 0;
#X connect 13 0 0 0;
#X connect 13 0 17 0;
#X connect 13 1 19 0;
#X connect 13 1 0 0;
#X connect 14 0 0 0;
#X connect 14 0 17 0;
#X connect 14 1 0 0;
#X connect 14 1 19 0;
#X connect 16 0 17 0;
#X connect 17 0 0 0;
#X connect 18 0 3 0;
#X connect 20 0 0 5;
#X coords 0 -1 1 1 145 70 1 100 100;
#X restore 255 282 pd mat;
#N canvas 132 38 1065 457 mat 0;
#X obj 687 160 matrix~ 7 2;
#X obj 582 298 outlet~;
#X obj 544 38 inlet~;
#X obj 660 299 outlet~;
#X obj 590 65 r~ sine;
#X obj 641 64 r~ wave 1;
#X obj 706 64 r~ squ;
#N canvas 467 157 450 300 cmd 0;
#X obj 48 243 outlet;
#X obj 144 245 outlet;
#X obj 103 102 tgl 20 0 empty empty SINE 7 26 2 12 -4032 -258113 -64
0 1;
#X obj 122 102 bng 20 250 50 0 empty empty empty 17 7 0 10 -262144
-258113 -1;
#X obj 36 124 sel 1;
#X obj 87 187 bng 15 250 50 0 empty empty empty 17 7 0 10 -262144 -1
-1;
#X obj 23 184 bng 15 250 50 0 empty empty empty 17 7 0 10 -262144 -1
-1;
#X floatatom 87 168 5 0 0 0 - - -;
#X floatatom 22 164 5 0 0 0 - - -;
#X obj 37 4 inlet;
#X obj 271 228 bng 15 250 50 0 empty empty empty 17 7 0 10 -262144
-1 -1;
#X obj 417 231 bng 15 250 50 0 empty empty empty 17 7 0 10 -262144
-1 -1;
#X msg 154 216 connect 1 1;
#X msg 50 215 disconnect 1 1;
#X obj 297 84 r clock;
#X obj 239 135 spigot;
#X connect 2 0 4 0;
#X connect 2 0 15 1;
#X connect 4 0 7 0;
#X connect 4 1 8 0;
#X connect 5 0 12 0;
#X connect 6 0 13 0;
#X connect 7 0 5 0;
#X connect 8 0 6 0;
#X connect 9 0 2 0;
#X connect 12 0 1 0;
#X connect 12 0 11 0;
#X connect 13 0 0 0;
#X connect 13 0 10 0;
#X connect 14 0 15 0;
#X connect 15 0 3 0;
#X coords 0 -1 1 1 45 33 1 100 100;
#X restore 102 135 pd cmd;
#X obj 751 63 r~ sine1;
#X obj 872 64 r~ saw;
#N canvas 467 157 450 300 cmd 0;
#X obj 48 243 outlet;
#X obj 144 245 outlet;
#X obj 103 102 tgl 20 0 empty empty W/S 9 26 2 12 -4032 -258113 -64
0 1;
#X obj 122 102 bng 20 250 50 0 empty empty empty 17 7 0 10 -262144
-258113 -1;
#X obj 36 124 sel 1;
#X obj 87 187 bng 15 250 50 0 empty empty empty 17 7 0 10 -262144 -1
-1;
#X obj 23 184 bng 15 250 50 0 empty empty empty 17 7 0 10 -262144 -1
-1;
#X floatatom 87 168 5 0 0 0 - - -;
#X floatatom 22 164 5 0 0 0 - - -;
#X obj 37 4 inlet;
#X obj 271 228 bng 15 250 50 0 empty empty empty 17 7 0 10 -262144
-1 -1;
#X obj 417 231 bng 15 250 50 0 empty empty empty 17 7 0 10 -262144
-1 -1;
#X msg 50 215 disconnect 2 1;
#X msg 154 216 connect 2 1;
#X obj 307 94 r clock;
#X obj 249 145 spigot;
#X connect 2 0 4 0;
#X connect 2 0 15 1;
#X connect 4 0 7 0;
#X connect 4 1 8 0;
#X connect 5 0 13 0;
#X connect 6 0 12 0;
#X connect 7 0 5 0;
#X connect 8 0 6 0;
#X connect 9 0 2 0;
#X connect 12 0 0 0;
#X connect 12 0 10 0;
#X connect 13 0 1 0;
#X connect 13 0 11 0;
#X connect 14 0 15 0;
#X connect 15 0 3 0;
#X coords 0 -1 1 1 45 33 1 100 100;
#X restore 146 135 pd cmd;
#N canvas 467 157 450 300 cmd 0;
#X obj 48 243 outlet;
#X obj 144 245 outlet;
#X obj 102 101 tgl 20 0 empty empty SQR 9 26 2 12 -4032 -258113 -64
0 1;
#X obj 121 101 bng 20 250 50 0 empty empty 2 21 10 2 14 -262144 -258113
-64;
#X obj 36 124 sel 1;
#X obj 87 187 bng 15 250 50 0 empty empty empty 17 7 0 10 -262144 -1
-1;
#X obj 23 184 bng 15 250 50 0 empty empty empty 17 7 0 10 -262144 -1
-1;
#X floatatom 87 168 5 0 0 0 - - -;
#X floatatom 22 164 5 0 0 0 - - -;
#X obj 37 4 inlet;
#X obj 271 228 bng 15 250 50 0 empty empty empty 17 7 0 10 -262144
-1 -1;
#X obj 417 231 bng 15 250 50 0 empty empty empty 17 7 0 10 -262144
-1 -1;
#X msg 50 215 disconnect 3 1;
#X msg 154 216 connect 3 1;
#X obj 208 77 r clock;
#X obj 210 113 spigot;
#X connect 2 0 4 0;
#X connect 2 0 15 1;
#X connect 4 0 7 0;
#X connect 4 1 8 0;
#X connect 5 0 13 0;
#X connect 6 0 12 0;
#X connect 7 0 5 0;
#X connect 8 0 6 0;
#X connect 9 0 2 0;
#X connect 12 0 0 0;
#X connect 12 0 10 0;
#X connect 13 0 1 0;
#X connect 13 0 11 0;
#X connect 14 0 15 0;
#X connect 15 0 3 0;
#X coords 0 -1 1 1 50 33 1 100 100;
#X restore 193 136 pd cmd;
#N canvas 467 157 450 300 cmd 0;
#X obj 48 243 outlet;
#X obj 144 245 outlet;
#X obj 103 101 tgl 20 0 empty empty SINE 8 26 2 12 -4032 -258113 -64
0 1;
#X obj 122 101 bng 20 250 50 0 empty empty empty 17 7 0 10 -262144
-258113 -1;
#X obj 36 124 sel 1;
#X obj 87 187 bng 15 250 50 0 empty empty empty 17 7 0 10 -262144 -1
-1;
#X obj 23 184 bng 15 250 50 0 empty empty empty 17 7 0 10 -262144 -1
-1;
#X floatatom 87 168 5 0 0 0 - - -;
#X floatatom 22 164 5 0 0 0 - - -;
#X obj 37 4 inlet;
#X obj 271 228 bng 15 250 50 0 empty empty empty 17 7 0 10 -262144
-1 -1;
#X obj 417 231 bng 15 250 50 0 empty empty empty 17 7 0 10 -262144
-1 -1;
#X msg 50 215 disconnect 4 1;
#X msg 154 216 connect 4 1;
#X obj 218 66 r clock;
#X obj 219 93 spigot;
#X connect 2 0 4 0;
#X connect 2 0 15 1;
#X connect 4 0 7 0;
#X connect 4 1 8 0;
#X connect 5 0 13 0;
#X connect 6 0 12 0;
#X connect 7 0 5 0;
#X connect 8 0 6 0;
#X connect 9 0 2 0;
#X connect 12 0 0 0;
#X connect 12 0 10 0;
#X connect 13 0 1 0;
#X connect 13 0 11 0;
#X connect 14 0 15 0;
#X connect 15 0 3 0;
#X coords 0 -1 1 1 45 33 1 100 100;
#X restore 102 102 pd cmd;
#N canvas 467 157 450 300 cmd 0;
#X obj 48 243 outlet;
#X obj 144 245 outlet;
#X obj 103 101 tgl 20 0 empty empty W/S 9 26 2 12 -4032 -258113 -64
0 1;
#X obj 122 101 bng 20 250 50 0 empty empty empty 17 7 0 10 -262144
-258113 -1;
#X obj 36 124 sel 1;
#X obj 87 187 bng 15 250 50 0 empty empty empty 17 7 0 10 -262144 -1
-1;
#X obj 23 184 bng 15 250 50 0 empty empty empty 17 7 0 10 -262144 -1
-1;
#X floatatom 87 168 5 0 0 0 - - -;
#X floatatom 22 164 5 0 0 0 - - -;
#X obj 37 4 inlet;
#X obj 271 228 bng 15 250 50 0 empty empty empty 17 7 0 10 -262144
-1 -1;
#X obj 417 231 bng 15 250 50 0 empty empty empty 17 7 0 10 -262144
-1 -1;
#X msg 50 215 disconnect 5 1;
#X msg 154 216 connect 5 1;
#X obj 204 63 r clock;
#X obj 205 90 spigot;
#X connect 2 0 4 0;
#X connect 2 0 15 1;
#X connect 4 0 7 0;
#X connect 4 1 8 0;
#X connect 5 0 13 0;
#X connect 6 0 12 0;
#X connect 7 0 5 0;
#X connect 8 0 6 0;
#X connect 9 0 2 0;
#X connect 12 0 0 0;
#X connect 12 0 10 0;
#X connect 13 0 1 0;
#X connect 13 0 11 0;
#X connect 14 0 15 0;
#X connect 15 0 3 0;
#X coords 0 -1 1 1 45 33 1 100 100;
#X restore 148 102 pd cmd;
#N canvas 467 157 450 300 cmd 0;
#X obj 48 243 outlet;
#X obj 144 245 outlet;
#X obj 101 101 tgl 20 0 empty empty SAW 9 26 2 12 -4032 -258113 -64
0 1;
#X obj 120 101 bng 20 250 50 0 empty empty 1 21 10 2 14 -262144 -258113
-64;
#X obj 36 124 sel 1;
#X obj 87 187 bng 15 250 50 0 empty empty empty 17 7 0 10 -262144 -1
-1;
#X obj 23 184 bng 15 250 50 0 empty empty empty 17 7 0 10 -262144 -1
-1;
#X floatatom 87 168 5 0 0 0 - - -;
#X floatatom 22 164 5 0 0 0 - - -;
#X obj 37 4 inlet;
#X obj 271 228 bng 15 250 50 0 empty empty empty 17 7 0 10 -262144
-1 -1;
#X obj 417 231 bng 15 250 50 0 empty empty empty 17 7 0 10 -262144
-1 -1;
#X msg 50 215 disconnect 6 1;
#X msg 154 216 connect 6 1;
#X obj 217 52 r clock;
#X obj 218 79 spigot;
#X connect 2 0 4 0;
#X connect 2 0 15 1;
#X connect 4 0 7 0;
#X connect 4 1 8 0;
#X connect 5 0 13 0;
#X connect 6 0 12 0;
#X connect 7 0 5 0;
#X connect 8 0 6 0;
#X connect 9 0 2 0;
#X connect 12 0 0 0;
#X connect 12 0 10 0;
#X connect 13 0 1 0;
#X connect 13 0 11 0;
#X connect 14 0 15 0;
#X connect 15 0 3 0;
#X coords 0 -1 1 1 50 33 1 100 100;
#X restore 194 102 pd cmd;
#X msg 254 44 disconnect 0 1;
#X obj 375 27 loadbang;
#X msg 374 72 connect 0 0;
#X obj 776 229 *~;
#X msg 360 191 connect 0 1;
#X obj 807 64 r~ wave2;
#X connect 0 0 1 0;
#X connect 0 0 18 0;
#X connect 0 1 18 1;
#X connect 2 0 0 0;
#X connect 4 0 0 1;
#X connect 5 0 0 2;
#X connect 6 0 0 3;
#X connect 7 0 0 0;
#X connect 7 0 17 0;
#X connect 7 1 0 0;
#X connect 7 1 19 0;
#X connect 8 0 0 4;
#X connect 9 0 0 6;
#X connect 10 0 0 0;
#X connect 10 0 17 0;
#X connect 10 1 0 0;
#X connect 10 1 19 0;
#X connect 11 0 0 0;
#X connect 11 0 17 0;
#X connect 11 1 0 0;
#X connect 11 1 19 0;
#X connect 12 0 0 0;
#X connect 12 0 17 0;
#X connect 12 1 19 0;
#X connect 12 1 0 0;
#X connect 13 0 0 0;
#X connect 13 0 17 0;
#X connect 13 1 19 0;
#X connect 13 1 0 0;
#X connect 14 0 0 0;
#X connect 14 0 17 0;
#X connect 14 1 0 0;
#X connect 14 1 19 0;
#X connect 16 0 17 0;
#X connect 17 0 0 0;
#X connect 18 0 3 0;
#X connect 20 0 0 5;
#X coords 0 -1 1 1 145 70 1 100 100;
#X restore 438 207 pd mat;
#X connect 4 0 7 0;
#X connect 5 0 7 1;
#X connect 6 0 5 0;
#X connect 6 0 59 0;
#X connect 7 0 62 0;
#X connect 7 0 73 0;
#X connect 8 0 10 0;
#X connect 9 0 5 1;
#X connect 10 0 11 0;
#X connect 11 0 9 0;
#X connect 12 0 29 0;
#X connect 13 0 8 0;
#X connect 14 0 13 0;
#X connect 15 0 16 0;
#X connect 16 0 52 0;
#X connect 17 0 15 1;
#X connect 18 0 48 0;
#X connect 19 0 48 0;
#X connect 20 0 48 0;
#X connect 21 0 48 0;
#X connect 22 0 36 0;
#X connect 23 0 29 1;
#X connect 23 0 36 0;
#X connect 24 0 25 0;
#X connect 25 0 3 0;
#X connect 26 0 12 0;
#X connect 27 0 30 0;
#X connect 28 0 55 0;
#X connect 29 0 27 0;
#X connect 30 0 6 0;
#X connect 30 0 61 0;
#X connect 31 0 32 0;
#X connect 31 0 30 1;
#X connect 31 0 38 0;
#X connect 32 0 33 0;
#X connect 33 0 37 0;
#X connect 34 0 31 0;
#X connect 35 0 34 0;
#X connect 36 0 6 0;
#X connect 36 0 61 0;
#X connect 37 0 36 1;
#X connect 38 0 39 0;
#X connect 39 0 37 0;
#X connect 40 0 41 0;
#X connect 41 0 31 0;
#X connect 42 0 28 0;
#X connect 42 0 18 0;
#X connect 42 0 39 0;
#X connect 43 0 44 0;
#X connect 44 0 72 0;
#X connect 45 0 43 1;
#X connect 46 0 47 0;
#X connect 47 0 45 1;
#X connect 48 2 24 0;
#X connect 49 0 48 0;
#X connect 50 0 48 0;
#X connect 51 0 43 0;
#X connect 51 0 45 0;
#X connect 51 0 15 0;
#X connect 51 0 17 0;
#X connect 52 0 48 2;
#X connect 52 1 48 2;
#X connect 53 0 40 0;
#X connect 53 0 22 0;
#X connect 53 0 23 0;
#X connect 53 0 68 0;
#X connect 54 0 14 0;
#X connect 54 0 4 1;
#X connect 55 0 35 0;
#X connect 55 0 26 0;
#X connect 56 0 51 1;
#X connect 57 0 46 0;
#X connect 58 0 17 1;
#X connect 61 0 63 0;
#X connect 63 0 65 0;
#X connect 64 0 66 0;
#X connect 65 0 64 0;
#X connect 66 0 67 0;
#X connect 67 0 60 0;
#X connect 67 0 4 0;
#X connect 68 0 36 0;
#X connect 69 0 21 0;
#X connect 69 0 49 0;
#X connect 69 1 19 0;
#X connect 69 1 50 0;
#X connect 69 3 51 0;
#X connect 70 0 71 0;
#X connect 71 0 5 1;
#X connect 72 0 48 0;
#X connect 72 1 48 0;
#X connect 73 0 48 1;
#X connect 73 1 48 1;
#X coords 0 -1 1 1 500 350 1 100 100;
#X restore 100 145 pd osc 1;
#N canvas 56 22 1204 743 osc 0;
#X obj 53 1065 outlet~;
#X obj 106 1065 outlet~;
#X obj 158 1066 outlet~;
#X obj 211 1066 outlet~;
#X obj 444 794 square~;
#X obj 448 845 *~;
#X obj 328 867 *~;
#X obj 318 808 osc~;
#X obj 399 883 +~;
#X obj 276 590 vsl 15 128 0 -1 0 0 empty empty empty 0 -9 0 10 -262144
-1 -1 0 1;
#X floatatom 276 767 5 0 0 0 - - -;
#X obj 276 727 * -1;
#X obj 276 747 abs;
#X floatatom 730 726 5 0 0 0 - - -;
#X floatatom 277 565 5 0 0 0 - - -;
#X obj 277 543 - 1;
#X obj 44 721 *~;
#X obj 45 746 osc~;
#X obj 67 687 *~;
#X msg -29 931 connect 1 2;
#X msg -186 823 connect 0 2;
#X msg -149 937 disconnect 1 2;
#X msg -149 903 disconnect 0 2;
#X floatatom 326 737 5 0 0 0 - - -;
#X floatatom 367 737 5 0 0 0 - - -;
#X obj 367 1043 *~ 2;
#X obj 367 1068 /~ 1;
#X obj 730 702 * -1;
#X floatatom 444 748 5 0 0 0 - - -;
#X msg 549 613 0;
#X obj 443 721 +;
#X obj 444 769 spigot;
#X obj 451 570 tgl 15 0 empty empty empty 17 7 0 10 -262144 -1 -1 1
1;
#X obj 444 631 sel 1;
#X msg 445 675 0;
#X msg 658 711 1;
#X obj 679 676 bng 15 250 50 0 empty empty empty 17 7 0 10 -262144
-1 -1;
#X obj 362 766 spigot;
#X obj 391 674 tgl 15 0 empty empty empty 17 7 0 10 -262144 -1 -1 1
1;
#X obj 384 600 sel 0;
#X msg 387 626 1;
#X obj 421 568 bng 15 250 50 0 empty empty empty 17 7 0 10 -262144
-1 -1;
#X msg 402 543 0;
#X obj 138 612 loadbang;
#X obj -20 788 *~;
#X obj -19 813 osc~;
#X obj 3 754 *~;
#X obj -20 667 exp;
#X floatatom -24 706 5 0 0 0 - - -;
#X obj 328 1000 matrix~ 3 3;
#X msg -153 964 disconnect 2 2;
#X msg -197 849 connect 2 2;
#X obj -109 592 *~;
#X obj 453 819 send~ squ;
#X obj 332 834 send~ sine;
#X obj 515 1030 send~ wave 1;
#X obj 436 296 knob 150 150 5 20000 1 0 empty empty FREQ 0 -8 2 12
-4160 -1 -64 0 1;
#X obj 396 123 knob 75 75 0 1 0 0 empty empty WAVESHAPE 0 -8 2 12 -262144
-1 -64 0 1;
#X obj 518 126 knob 50 50 5 -5 0 0 empty empty TRIM 0 -8 2 12 -262144
-1 -64 2450 1;
#X obj 219 202 knob 75 75 0 1 0 0 empty empty FM_IN 0 -8 2 12 -262144
-1 -64 0 1;
#X obj 138 372 knob 75 75 0 11 0 0 empty empty FM_EXP 0 -8 2 12 -262144
-1 -64 0 1;
#X obj 290 371 knob 75 75 0 10000 0 0 empty empty FM_LIN 0 -8 2 12
-262144 -1 -64 0 1;
#N canvas 132 38 1065 457 mat 0;
#X obj 687 160 matrix~ 7 2;
#X obj 582 298 outlet~;
#X obj 544 38 inlet~;
#X obj 660 299 outlet~;
#X obj 590 65 r~ sine;
#X obj 641 64 r~ wave 1;
#X obj 706 64 r~ squ;
#X obj 751 63 r~ sine1;
#X obj 872 64 r~ saw;
#X obj 463 295 outlet;
#X obj 407 295 outlet;
#X obj 807 64 r~ wave2;
#N canvas 467 157 450 300 (subpatch) 0;
#X obj 48 243 outlet;
#X obj 144 245 outlet;
#X obj 102 102 tgl 20 0 empty empty W/S 13 26 2 12 -4032 -258113 -64
0 1;
#X obj 121 102 bng 20 250 50 0 empty empty empty 17 7 0 10 -262144
-258113 -1;
#X obj 36 124 sel 1;
#X obj 87 187 bng 15 250 50 0 empty empty empty 17 7 0 10 -262144 -1
-1;
#X obj 23 184 bng 15 250 50 0 empty empty empty 17 7 0 10 -262144 -1
-1;
#X floatatom 87 168 5 0 0 0 - - -;
#X floatatom 22 164 5 0 0 0 - - -;
#X obj 37 4 inlet;
#X obj 271 228 bng 15 250 50 0 empty empty empty 17 7 0 10 -262144
-1 -1;
#X obj 417 231 bng 15 250 50 0 empty empty empty 17 7 0 10 -262144
-1 -1;
#X msg 50 215 disconnect 2 1;
#X msg 154 216 connect 2 1;
#X obj 211 105 spigot;
#X obj 220 76 r clock;
#X connect 2 0 4 0;
#X connect 2 0 14 1;
#X connect 4 0 7 0;
#X connect 4 1 8 0;
#X connect 5 0 13 0;
#X connect 6 0 12 0;
#X connect 7 0 5 0;
#X connect 8 0 6 0;
#X connect 9 0 2 0;
#X connect 12 0 0 0;
#X connect 12 0 10 0;
#X connect 13 0 1 0;
#X connect 13 0 11 0;
#X connect 14 0 3 0;
#X connect 15 0 14 0;
#X coords 0 -1 1 1 45 35 1 100 100;
#X restore 146 137 pd 1;
#N canvas 467 157 450 300 .. 0;
#X obj 48 243 outlet;
#X obj 144 245 outlet;
#X obj 103 102 tgl 20 0 empty empty SQR 10 26 2 12 -4032 -258113 -64
0 1;
#X obj 122 102 bng 20 250 50 0 empty empty OSC_2 22 10 2 12 -262144
-258113 -64;
#X obj 36 124 sel 1;
#X obj 87 187 bng 15 250 50 0 empty empty empty 17 7 0 10 -262144 -1
-1;
#X obj 23 184 bng 15 250 50 0 empty empty empty 17 7 0 10 -262144 -1
-1;
#X floatatom 87 168 5 0 0 0 - - -;
#X floatatom 22 164 5 0 0 0 - - -;
#X obj 37 4 inlet;
#X obj 271 228 bng 15 250 50 0 empty empty empty 17 7 0 10 -262144
-1 -1;
#X obj 417 231 bng 15 250 50 0 empty empty empty 17 7 0 10 -262144
-1 -1;
#X msg 50 215 disconnect 3 1;
#X msg 154 216 connect 3 1;
#X obj 231 125 spigot;
#X obj 240 96 r clock;
#X connect 2 0 4 0;
#X connect 2 0 14 1;
#X connect 4 0 7 0;
#X connect 4 1 8 0;
#X connect 5 0 13 0;
#X connect 6 0 12 0;
#X connect 7 0 5 0;
#X connect 8 0 6 0;
#X connect 9 0 2 0;
#X connect 12 0 0 0;
#X connect 12 0 10 0;
#X connect 13 0 1 0;
#X connect 13 0 11 0;
#X connect 14 0 3 0;
#X connect 15 0 14 0;
#X coords 0 -1 1 1 80 35 1 100 100;
#X restore 193 137 pd ..;
#N canvas 467 157 450 300 ... 0;
#X obj 48 243 outlet;
#X obj 144 245 outlet;
#X obj 103 101 tgl 20 0 empty empty SINE 10 26 2 12 -4032 -258113 -64
0 1;
#X obj 122 101 bng 20 250 50 0 empty empty empty 17 7 0 10 -262144
-258113 -1;
#X obj 36 124 sel 1;
#X obj 87 187 bng 15 250 50 0 empty empty empty 17 7 0 10 -262144 -1
-1;
#X obj 23 184 bng 15 250 50 0 empty empty empty 17 7 0 10 -262144 -1
-1;
#X floatatom 87 168 5 0 0 0 - - -;
#X floatatom 22 164 5 0 0 0 - - -;
#X obj 37 4 inlet;
#X obj 271 228 bng 15 250 50 0 empty empty empty 17 7 0 10 -262144
-1 -1;
#X obj 417 231 bng 15 250 50 0 empty empty empty 17 7 0 10 -262144
-1 -1;
#X msg 50 215 disconnect 4 1;
#X msg 154 216 connect 4 1;
#X obj 205 82 spigot;
#X obj 214 53 r clock;
#X connect 2 0 4 0;
#X connect 2 0 14 1;
#X connect 4 0 7 0;
#X connect 4 1 8 0;
#X connect 5 0 13 0;
#X connect 6 0 12 0;
#X connect 7 0 5 0;
#X connect 8 0 6 0;
#X connect 9 0 2 0;
#X connect 12 0 0 0;
#X connect 12 0 10 0;
#X connect 13 0 1 0;
#X connect 13 0 11 0;
#X connect 14 0 3 0;
#X connect 15 0 14 0;
#X coords 0 -1 1 1 45 33 1 100 100;
#X restore 100 101 pd ...;
#N canvas 467 157 450 300 ... 0;
#X obj 48 243 outlet;
#X obj 144 245 outlet;
#X obj 102 101 tgl 20 0 empty empty W/S 12 26 2 12 -4032 -258113 -64
0 1;
#X obj 121 101 bng 20 250 50 0 empty empty empty 17 7 0 10 -262144
-258113 -1;
#X obj 36 124 sel 1;
#X obj 87 187 bng 15 250 50 0 empty empty empty 17 7 0 10 -262144 -1
-1;
#X obj 23 184 bng 15 250 50 0 empty empty empty 17 7 0 10 -262144 -1
-1;
#X floatatom 87 168 5 0 0 0 - - -;
#X floatatom 22 164 5 0 0 0 - - -;
#X obj 37 4 inlet;
#X obj 271 228 bng 15 250 50 0 empty empty empty 17 7 0 10 -262144
-1 -1;
#X obj 417 231 bng 15 250 50 0 empty empty empty 17 7 0 10 -262144
-1 -1;
#X msg 50 215 disconnect 5 1;
#X msg 154 216 connect 5 1;
#X obj 199 68 spigot;
#X obj 208 39 r clock;
#X connect 2 0 4 0;
#X connect 2 0 14 1;
#X connect 4 0 7 0;
#X connect 4 1 8 0;
#X connect 5 0 13 0;
#X connect 6 0 12 0;
#X connect 7 0 5 0;
#X connect 8 0 6 0;
#X connect 9 0 2 0;
#X connect 12 0 0 0;
#X connect 12 0 10 0;
#X connect 13 0 1 0;
#X connect 13 0 11 0;
#X connect 14 0 3 0;
#X connect 15 0 14 0;
#X coords 0 -1 1 1 45 33 1 100 100;
#X restore 146 102 pd ...;
#N canvas 467 157 450 300 ... 0;
#X obj 48 243 outlet;
#X obj 144 245 outlet;
#X obj 102 101 tgl 20 0 empty empty SAW 10 26 2 12 -4032 -258113 -64
0 1;
#X obj 121 101 bng 20 250 50 0 empty empty OSC_1 22 10 2 12 -262144
-258113 -64;
#X obj 36 124 sel 1;
#X obj 87 187 bng 15 250 50 0 empty empty empty 17 7 0 10 -262144 -1
-1;
#X obj 23 184 bng 15 250 50 0 empty empty empty 17 7 0 10 -262144 -1
-1;
#X floatatom 87 168 5 0 0 0 - - -;
#X floatatom 22 164 5 0 0 0 - - -;
#X obj 37 4 inlet;
#X obj 271 228 bng 15 250 50 0 empty empty empty 17 7 0 10 -262144
-1 -1;
#X obj 417 231 bng 15 250 50 0 empty empty empty 17 7 0 10 -262144
-1 -1;
#X msg 50 215 disconnect 6 1;
#X msg 154 216 connect 6 1;
#X obj 212 56 spigot;
#X obj 221 27 r clock;
#X connect 2 0 4 0;
#X connect 2 0 14 1;
#X connect 4 0 7 0;
#X connect 4 1 8 0;
#X connect 5 0 13 0;
#X connect 6 0 12 0;
#X connect 7 0 5 0;
#X connect 8 0 6 0;
#X connect 9 0 2 0;
#X connect 12 0 0 0;
#X connect 12 0 10 0;
#X connect 13 0 1 0;
#X connect 13 0 11 0;
#X connect 14 0 3 0;
#X connect 15 0 14 0;
#X coords 0 -1 1 1 80 33 1 100 100;
#X restore 193 103 pd ...;
#N canvas 467 157 450 300 (subpatch) 0;
#X obj 48 243 outlet;
#X obj 144 245 outlet;
#X obj 102 101 tgl 20 0 empty empty SINE 8 26 2 12 -4032 -258113 -64
0 1;
#X obj 121 101 bng 20 250 50 0 empty empty empty 17 7 0 10 -262144
-258113 -1;
#X obj 36 124 sel 1;
#X obj 87 187 bng 15 250 50 0 empty empty empty 17 7 0 10 -262144 -1
-1;
#X obj 23 184 bng 15 250 50 0 empty empty empty 17 7 0 10 -262144 -1
-1;
#X floatatom 87 168 5 0 0 0 - - -;
#X floatatom 22 164 5 0 0 0 - - -;
#X obj 37 4 inlet;
#X obj 271 228 bng 15 250 50 0 empty empty empty 17 7 0 10 -262144
-1 -1;
#X obj 417 231 bng 15 250 50 0 empty empty empty 17 7 0 10 -262144
-1 -1;
#X msg 154 216 connect 1 1;
#X msg 50 215 disconnect 1 1;
#X obj 232 134 spigot;
#X obj 226 99 r clock;
#X connect 2 0 4 0;
#X connect 2 0 14 1;
#X connect 4 0 7 0;
#X connect 4 1 8 0;
#X connect 5 0 12 0;
#X connect 6 0 13 0;
#X connect 7 0 5 0;
#X connect 8 0 6 0;
#X connect 9 0 2 0;
#X connect 12 0 1 0;
#X connect 12 0 11 0;
#X connect 13 0 0 0;
#X connect 13 0 10 0;
#X connect 14 0 3 0;
#X connect 15 0 14 0;
#X coords 0 -1 1 1 45 33 1 100 100;
#X restore 101 137 pd;
#X obj 207 343 metro 500;
#X obj 207 325 tgl 15 0 empty empty empty 17 7 0 10 -262144 -1 -1 1
1;
#X obj 206 365 send clock;
#X obj 206 285 loadbang;
#X msg 207 304 1;
#X connect 0 1 3 0;
#X connect 2 0 0 0;
#X connect 4 0 0 1;
#X connect 5 0 0 2;
#X connect 6 0 0 3;
#X connect 7 0 0 4;
#X connect 8 0 0 6;
#X connect 11 0 0 5;
#X connect 12 0 0 0;
#X connect 12 0 10 0;
#X connect 12 1 0 0;
#X connect 12 1 9 0;
#X connect 13 0 0 0;
#X connect 13 0 10 0;
#X connect 13 1 0 0;
#X connect 13 1 9 0;
#X connect 14 0 0 0;
#X connect 14 0 10 0;
#X connect 14 1 9 0;
#X connect 14 1 0 0;
#X connect 15 0 0 0;
#X connect 15 0 10 0;
#X connect 15 1 9 0;
#X connect 15 1 0 0;
#X connect 16 0 0 0;
#X connect 16 0 10 0;
#X connect 16 1 0 0;
#X connect 16 1 9 0;
#X connect 17 0 0 0;
#X connect 17 0 10 0;
#X connect 17 1 0 0;
#X connect 17 1 9 0;
#X connect 18 0 20 0;
#X connect 19 0 18 0;
#X connect 21 0 22 0;
#X connect 22 0 19 0;
#X coords 0 -1 1 1 175 75 1 100 100;
#X restore 166 107 pd mat;
#N canvas 264 22 818 586 drift 0;
#X obj 91 212 random 100;
#X obj 91 256 moses 5;
#X obj 157 256 moses 10;
#X obj 233 256 moses 20;
#X obj 309 256 moses 30;
#X obj 389 256 moses 60;
#X obj 91 314 bng 15 250 50 0 empty empty empty 17 7 0 10 -262144 -1
-1;
#X obj 90 190 bng 15 250 50 0 empty empty empty 17 7 0 10 -262144 -1
-1;
#X obj 157 314 bng 15 250 50 0 empty empty empty 17 7 0 10 -262144
-1 -1;
#X obj 233 314 bng 15 250 50 0 empty empty empty 17 7 0 10 -262144
-1 -1;
#X obj 309 314 bng 15 250 50 0 empty empty empty 17 7 0 10 -262144
-1 -1;
#X obj 389 314 bng 15 250 50 0 empty empty empty 17 7 0 10 -262144
-1 -1;
#X obj 434 314 bng 15 250 50 0 empty empty empty 17 7 0 10 -262144
-1 -1;
#X obj 91 84 bng 15 250 50 0 empty empty empty 17 7 0 10 -262144 -1
-1;
#X obj 90 166 delay;
#X floatatom 93 125 5 0 0 0 - - -;
#X obj 231 4 inlet;
#X floatatom 263 213 5 0 0 0 - - -;
#X obj 443 345 + 3;
#X obj 386 346 - 3;
#X floatatom 385 368 5 0 0 0 - - -;
#X floatatom 443 369 5 0 0 0 - - -;
#X floatatom 387 434 5 0 0 0 - - -;
#X obj 387 412 f;
#X floatatom 441 436 5 0 0 0 - - -;
#X obj 443 412 f;
#X obj 91 145 * 10000;
#X floatatom 236 372 5 0 0 0 - - -;
#X floatatom 294 373 5 0 0 0 - - -;
#X floatatom 238 438 5 0 0 0 - - -;
#X obj 238 416 f;
#X floatatom 292 440 5 0 0 0 - - -;
#X obj 294 416 f;
#X obj 294 349 + 5;
#X obj 237 350 - 5;
#X floatatom 91 369 5 0 0 0 - - -;
#X floatatom 149 370 5 0 0 0 - - -;
#X floatatom 93 435 5 0 0 0 - - -;
#X obj 93 413 f;
#X floatatom 147 437 5 0 0 0 - - -;
#X obj 149 413 f;
#X obj 149 346 + 7;
#X obj 92 347 - 11;
#X obj 163 532 outlet;
#X obj 93 104 random 60;
#X obj 92 62 delay;
#X obj 94 -27 loadbang;
#X msg 525 59;
#X obj 93 41 * 1000;
#X obj 93 20 + 30;
#X obj 94 -3 random 60;
#X obj 24 435 bng 15 250 50 0 empty empty empty 17 7 0 10 -262144 -1
-1;
#X obj 24 411 delay;
#X obj 25 390 * 1000;
#X obj 26 346 random 60;
#X obj 25 369 + 15;
#X connect 0 0 1 0;
#X connect 1 0 6 0;
#X connect 1 1 2 0;
#X connect 2 0 8 0;
#X connect 2 1 3 0;
#X connect 3 0 9 0;
#X connect 3 1 4 0;
#X connect 4 0 10 0;
#X connect 4 1 5 0;
#X connect 5 0 11 0;
#X connect 5 1 12 0;
#X connect 6 0 38 0;
#X connect 6 0 54 0;
#X connect 7 0 0 0;
#X connect 8 0 40 0;
#X connect 8 0 54 0;
#X connect 9 0 30 0;
#X connect 9 0 54 0;
#X connect 10 0 32 0;
#X connect 10 0 54 0;
#X connect 11 0 23 0;
#X connect 11 0 54 0;
#X connect 12 0 25 0;
#X connect 12 0 54 0;
#X connect 13 0 44 0;
#X connect 14 0 7 0;
#X connect 15 0 26 0;
#X connect 16 0 17 0;
#X connect 17 0 18 0;
#X connect 17 0 19 0;
#X connect 17 0 33 0;
#X connect 17 0 34 0;
#X connect 17 0 41 0;
#X connect 17 0 42 0;
#X connect 18 0 21 0;
#X connect 19 0 20 0;
#X connect 20 0 23 1;
#X connect 21 0 25 1;
#X connect 22 0 43 0;
#X connect 23 0 22 0;
#X connect 24 0 43 0;
#X connect 25 0 24 0;
#X connect 26 0 14 0;
#X connect 27 0 30 1;
#X connect 28 0 32 1;
#X connect 29 0 43 0;
#X connect 30 0 29 0;
#X connect 31 0 43 0;
#X connect 32 0 31 0;
#X connect 33 0 28 0;
#X connect 34 0 27 0;
#X connect 35 0 38 1;
#X connect 36 0 40 1;
#X connect 37 0 43 0;
#X connect 38 0 37 0;
#X connect 39 0 43 0;
#X connect 40 0 39 0;
#X connect 41 0 36 0;
#X connect 42 0 35 0;
#X connect 44 0 15 0;
#X connect 45 0 13 0;
#X connect 46 0 50 0;
#X connect 48 0 45 0;
#X connect 49 0 48 0;
#X connect 50 0 49 0;
#X connect 51 0 13 0;
#X connect 52 0 51 0;
#X connect 53 0 52 0;
#X connect 54 0 55 0;
#X connect 55 0 53 0;
#X restore 521 682 pd drift;
#X obj 493 769 loadbang;
#X msg 495 792 1;
#N canvas 132 38 1065 457 mat 0;
#X obj 687 160 matrix~ 7 2;
#X obj 582 298 outlet~;
#X obj 544 38 inlet~;
#X obj 660 299 outlet~;
#X obj 590 65 r~ sine;
#X obj 641 64 r~ wave 1;
#X obj 706 64 r~ squ;
#N canvas 467 157 450 300 cmd 0;
#X obj 48 243 outlet;
#X obj 144 245 outlet;
#X obj 103 102 tgl 20 0 empty empty SINE 7 26 2 12 -4032 -258113 -64
0 1;
#X obj 122 102 bng 20 250 50 0 empty empty empty 17 7 0 10 -262144
-258113 -1;
#X obj 36 124 sel 1;
#X obj 87 187 bng 15 250 50 0 empty empty empty 17 7 0 10 -262144 -1
-1;
#X obj 23 184 bng 15 250 50 0 empty empty empty 17 7 0 10 -262144 -1
-1;
#X floatatom 87 168 5 0 0 0 - - -;
#X floatatom 22 164 5 0 0 0 - - -;
#X obj 37 4 inlet;
#X obj 271 228 bng 15 250 50 0 empty empty empty 17 7 0 10 -262144
-1 -1;
#X obj 417 231 bng 15 250 50 0 empty empty empty 17 7 0 10 -262144
-1 -1;
#X msg 154 216 connect 1 1;
#X msg 50 215 disconnect 1 1;
#X obj 297 84 r clock;
#X obj 239 135 spigot;
#X connect 2 0 4 0;
#X connect 2 0 15 1;
#X connect 4 0 7 0;
#X connect 4 1 8 0;
#X connect 5 0 12 0;
#X connect 6 0 13 0;
#X connect 7 0 5 0;
#X connect 8 0 6 0;
#X connect 9 0 2 0;
#X connect 12 0 1 0;
#X connect 12 0 11 0;
#X connect 13 0 0 0;
#X connect 13 0 10 0;
#X connect 14 0 15 0;
#X connect 15 0 3 0;
#X coords 0 -1 1 1 45 33 1 100 100;
#X restore 102 135 pd cmd;
#X obj 751 63 r~ sine1;
#X obj 872 64 r~ saw;
#N canvas 467 157 450 300 cmd 0;
#X obj 48 243 outlet;
#X obj 144 245 outlet;
#X obj 103 102 tgl 20 0 empty empty W/S 9 26 2 12 -4032 -258113 -64
0 1;
#X obj 122 102 bng 20 250 50 0 empty empty empty 17 7 0 10 -262144
-258113 -1;
#X obj 36 124 sel 1;
#X obj 87 187 bng 15 250 50 0 empty empty empty 17 7 0 10 -262144 -1
-1;
#X obj 23 184 bng 15 250 50 0 empty empty empty 17 7 0 10 -262144 -1
-1;
#X floatatom 87 168 5 0 0 0 - - -;
#X floatatom 22 164 5 0 0 0 - - -;
#X obj 37 4 inlet;
#X obj 271 228 bng 15 250 50 0 empty empty empty 17 7 0 10 -262144
-1 -1;
#X obj 417 231 bng 15 250 50 0 empty empty empty 17 7 0 10 -262144
-1 -1;
#X msg 50 215 disconnect 2 1;
#X msg 154 216 connect 2 1;
#X obj 307 94 r clock;
#X obj 249 145 spigot;
#X connect 2 0 4 0;
#X connect 2 0 15 1;
#X connect 4 0 7 0;
#X connect 4 1 8 0;
#X connect 5 0 13 0;
#X connect 6 0 12 0;
#X connect 7 0 5 0;
#X connect 8 0 6 0;
#X connect 9 0 2 0;
#X connect 12 0 0 0;
#X connect 12 0 10 0;
#X connect 13 0 1 0;
#X connect 13 0 11 0;
#X connect 14 0 15 0;
#X connect 15 0 3 0;
#X coords 0 -1 1 1 45 33 1 100 100;
#X restore 146 135 pd cmd;
#N canvas 467 157 450 300 cmd 0;
#X obj 48 243 outlet;
#X obj 144 245 outlet;
#X obj 102 101 tgl 20 0 empty empty SQR 9 26 2 12 -4032 -258113 -64
0 1;
#X obj 121 101 bng 20 250 50 0 empty empty 2 21 10 2 14 -262144 -258113
-64;
#X obj 36 124 sel 1;
#X obj 87 187 bng 15 250 50 0 empty empty empty 17 7 0 10 -262144 -1
-1;
#X obj 23 184 bng 15 250 50 0 empty empty empty 17 7 0 10 -262144 -1
-1;
#X floatatom 87 168 5 0 0 0 - - -;
#X floatatom 22 164 5 0 0 0 - - -;
#X obj 37 4 inlet;
#X obj 271 228 bng 15 250 50 0 empty empty empty 17 7 0 10 -262144
-1 -1;
#X obj 417 231 bng 15 250 50 0 empty empty empty 17 7 0 10 -262144
-1 -1;
#X msg 50 215 disconnect 3 1;
#X msg 154 216 connect 3 1;
#X obj 208 77 r clock;
#X obj 210 113 spigot;
#X connect 2 0 4 0;
#X connect 2 0 15 1;
#X connect 4 0 7 0;
#X connect 4 1 8 0;
#X connect 5 0 13 0;
#X connect 6 0 12 0;
#X connect 7 0 5 0;
#X connect 8 0 6 0;
#X connect 9 0 2 0;
#X connect 12 0 0 0;
#X connect 12 0 10 0;
#X connect 13 0 1 0;
#X connect 13 0 11 0;
#X connect 14 0 15 0;
#X connect 15 0 3 0;
#X coords 0 -1 1 1 50 33 1 100 100;
#X restore 193 136 pd cmd;
#N canvas 467 157 450 300 cmd 0;
#X obj 48 243 outlet;
#X obj 144 245 outlet;
#X obj 103 101 tgl 20 0 empty empty SINE 8 26 2 12 -4032 -258113 -64
0 1;
#X obj 122 101 bng 20 250 50 0 empty empty empty 17 7 0 10 -262144
-258113 -1;
#X obj 36 124 sel 1;
#X obj 87 187 bng 15 250 50 0 empty empty empty 17 7 0 10 -262144 -1
-1;
#X obj 23 184 bng 15 250 50 0 empty empty empty 17 7 0 10 -262144 -1
-1;
#X floatatom 87 168 5 0 0 0 - - -;
#X floatatom 22 164 5 0 0 0 - - -;
#X obj 37 4 inlet;
#X obj 271 228 bng 15 250 50 0 empty empty empty 17 7 0 10 -262144
-1 -1;
#X obj 417 231 bng 15 250 50 0 empty empty empty 17 7 0 10 -262144
-1 -1;
#X msg 50 215 disconnect 4 1;
#X msg 154 216 connect 4 1;
#X obj 218 66 r clock;
#X obj 219 93 spigot;
#X connect 2 0 4 0;
#X connect 2 0 15 1;
#X connect 4 0 7 0;
#X connect 4 1 8 0;
#X connect 5 0 13 0;
#X connect 6 0 12 0;
#X connect 7 0 5 0;
#X connect 8 0 6 0;
#X connect 9 0 2 0;
#X connect 12 0 0 0;
#X connect 12 0 10 0;
#X connect 13 0 1 0;
#X connect 13 0 11 0;
#X connect 14 0 15 0;
#X connect 15 0 3 0;
#X coords 0 -1 1 1 45 33 1 100 100;
#X restore 102 102 pd cmd;
#N canvas 467 157 450 300 cmd 0;
#X obj 48 243 outlet;
#X obj 144 245 outlet;
#X obj 103 101 tgl 20 0 empty empty W/S 9 26 2 12 -4032 -258113 -64
0 1;
#X obj 122 101 bng 20 250 50 0 empty empty empty 17 7 0 10 -262144
-258113 -1;
#X obj 36 124 sel 1;
#X obj 87 187 bng 15 250 50 0 empty empty empty 17 7 0 10 -262144 -1
-1;
#X obj 23 184 bng 15 250 50 0 empty empty empty 17 7 0 10 -262144 -1
-1;
#X floatatom 87 168 5 0 0 0 - - -;
#X floatatom 22 164 5 0 0 0 - - -;
#X obj 37 4 inlet;
#X obj 271 228 bng 15 250 50 0 empty empty empty 17 7 0 10 -262144
-1 -1;
#X obj 417 231 bng 15 250 50 0 empty empty empty 17 7 0 10 -262144
-1 -1;
#X msg 50 215 disconnect 5 1;
#X msg 154 216 connect 5 1;
#X obj 204 63 r clock;
#X obj 205 90 spigot;
#X connect 2 0 4 0;
#X connect 2 0 15 1;
#X connect 4 0 7 0;
#X connect 4 1 8 0;
#X connect 5 0 13 0;
#X connect 6 0 12 0;
#X connect 7 0 5 0;
#X connect 8 0 6 0;
#X connect 9 0 2 0;
#X connect 12 0 0 0;
#X connect 12 0 10 0;
#X connect 13 0 1 0;
#X connect 13 0 11 0;
#X connect 14 0 15 0;
#X connect 15 0 3 0;
#X coords 0 -1 1 1 45 33 1 100 100;
#X restore 148 102 pd cmd;
#N canvas 467 157 450 300 cmd 0;
#X obj 48 243 outlet;
#X obj 144 245 outlet;
#X obj 101 101 tgl 20 0 empty empty SAW 9 26 2 12 -4032 -258113 -64
0 1;
#X obj 120 101 bng 20 250 50 0 empty empty 1 21 10 2 14 -262144 -258113
-64;
#X obj 36 124 sel 1;
#X obj 87 187 bng 15 250 50 0 empty empty empty 17 7 0 10 -262144 -1
-1;
#X obj 23 184 bng 15 250 50 0 empty empty empty 17 7 0 10 -262144 -1
-1;
#X floatatom 87 168 5 0 0 0 - - -;
#X floatatom 22 164 5 0 0 0 - - -;
#X obj 37 4 inlet;
#X obj 271 228 bng 15 250 50 0 empty empty empty 17 7 0 10 -262144
-1 -1;
#X obj 417 231 bng 15 250 50 0 empty empty empty 17 7 0 10 -262144
-1 -1;
#X msg 50 215 disconnect 6 1;
#X msg 154 216 connect 6 1;
#X obj 217 52 r clock;
#X obj 218 79 spigot;
#X connect 2 0 4 0;
#X connect 2 0 15 1;
#X connect 4 0 7 0;
#X connect 4 1 8 0;
#X connect 5 0 13 0;
#X connect 6 0 12 0;
#X connect 7 0 5 0;
#X connect 8 0 6 0;
#X connect 9 0 2 0;
#X connect 12 0 0 0;
#X connect 12 0 10 0;
#X connect 13 0 1 0;
#X connect 13 0 11 0;
#X connect 14 0 15 0;
#X connect 15 0 3 0;
#X coords 0 -1 1 1 50 33 1 100 100;
#X restore 194 102 pd cmd;
#X msg 254 44 disconnect 0 1;
#X obj 375 27 loadbang;
#X msg 374 72 connect 0 0;
#X obj 776 229 *~;
#X msg 360 191 connect 0 1;
#X obj 807 64 r~ wave2;
#X connect 0 0 1 0;
#X connect 0 0 18 0;
#X connect 0 1 18 1;
#X connect 2 0 0 0;
#X connect 4 0 0 1;
#X connect 5 0 0 2;
#X connect 6 0 0 3;
#X connect 7 0 0 0;
#X connect 7 0 17 0;
#X connect 7 1 0 0;
#X connect 7 1 19 0;
#X connect 8 0 0 4;
#X connect 9 0 0 6;
#X connect 10 0 0 0;
#X connect 10 0 17 0;
#X connect 10 1 0 0;
#X connect 10 1 19 0;
#X connect 11 0 0 0;
#X connect 11 0 17 0;
#X connect 11 1 0 0;
#X connect 11 1 19 0;
#X connect 12 0 0 0;
#X connect 12 0 17 0;
#X connect 12 1 19 0;
#X connect 12 1 0 0;
#X connect 13 0 0 0;
#X connect 13 0 17 0;
#X connect 13 1 19 0;
#X connect 13 1 0 0;
#X connect 14 0 0 0;
#X connect 14 0 17 0;
#X connect 14 1 0 0;
#X connect 14 1 19 0;
#X connect 16 0 17 0;
#X connect 17 0 0 0;
#X connect 18 0 3 0;
#X connect 20 0 0 5;
#X coords 0 -1 1 1 145 70 1 100 100;
#X restore 104 286 pd mat;
#N canvas 132 38 1065 457 mat 0;
#X obj 687 160 matrix~ 7 2;
#X obj 582 298 outlet~;
#X obj 544 38 inlet~;
#X obj 660 299 outlet~;
#X obj 590 65 r~ sine;
#X obj 641 64 r~ wave 1;
#X obj 706 64 r~ squ;
#N canvas 467 157 450 300 cmd 0;
#X obj 48 243 outlet;
#X obj 144 245 outlet;
#X obj 103 102 tgl 20 0 empty empty SINE 7 26 2 12 -4032 -258113 -64
0 1;
#X obj 122 102 bng 20 250 50 0 empty empty empty 17 7 0 10 -262144
-258113 -1;
#X obj 36 124 sel 1;
#X obj 87 187 bng 15 250 50 0 empty empty empty 17 7 0 10 -262144 -1
-1;
#X obj 23 184 bng 15 250 50 0 empty empty empty 17 7 0 10 -262144 -1
-1;
#X floatatom 87 168 5 0 0 0 - - -;
#X floatatom 22 164 5 0 0 0 - - -;
#X obj 37 4 inlet;
#X obj 271 228 bng 15 250 50 0 empty empty empty 17 7 0 10 -262144
-1 -1;
#X obj 417 231 bng 15 250 50 0 empty empty empty 17 7 0 10 -262144
-1 -1;
#X msg 154 216 connect 1 1;
#X msg 50 215 disconnect 1 1;
#X obj 297 84 r clock;
#X obj 239 135 spigot;
#X connect 2 0 4 0;
#X connect 2 0 15 1;
#X connect 4 0 7 0;
#X connect 4 1 8 0;
#X connect 5 0 12 0;
#X connect 6 0 13 0;
#X connect 7 0 5 0;
#X connect 8 0 6 0;
#X connect 9 0 2 0;
#X connect 12 0 1 0;
#X connect 12 0 11 0;
#X connect 13 0 0 0;
#X connect 13 0 10 0;
#X connect 14 0 15 0;
#X connect 15 0 3 0;
#X coords 0 -1 1 1 45 33 1 100 100;
#X restore 102 135 pd cmd;
#X obj 751 63 r~ sine1;
#X obj 872 64 r~ saw;
#N canvas 467 157 450 300 cmd 0;
#X obj 48 243 outlet;
#X obj 144 245 outlet;
#X obj 103 102 tgl 20 0 empty empty W/S 9 26 2 12 -4032 -258113 -64
0 1;
#X obj 122 102 bng 20 250 50 0 empty empty empty 17 7 0 10 -262144
-258113 -1;
#X obj 36 124 sel 1;
#X obj 87 187 bng 15 250 50 0 empty empty empty 17 7 0 10 -262144 -1
-1;
#X obj 23 184 bng 15 250 50 0 empty empty empty 17 7 0 10 -262144 -1
-1;
#X floatatom 87 168 5 0 0 0 - - -;
#X floatatom 22 164 5 0 0 0 - - -;
#X obj 37 4 inlet;
#X obj 271 228 bng 15 250 50 0 empty empty empty 17 7 0 10 -262144
-1 -1;
#X obj 417 231 bng 15 250 50 0 empty empty empty 17 7 0 10 -262144
-1 -1;
#X msg 50 215 disconnect 2 1;
#X msg 154 216 connect 2 1;
#X obj 307 94 r clock;
#X obj 249 145 spigot;
#X connect 2 0 4 0;
#X connect 2 0 15 1;
#X connect 4 0 7 0;
#X connect 4 1 8 0;
#X connect 5 0 13 0;
#X connect 6 0 12 0;
#X connect 7 0 5 0;
#X connect 8 0 6 0;
#X connect 9 0 2 0;
#X connect 12 0 0 0;
#X connect 12 0 10 0;
#X connect 13 0 1 0;
#X connect 13 0 11 0;
#X connect 14 0 15 0;
#X connect 15 0 3 0;
#X coords 0 -1 1 1 45 33 1 100 100;
#X restore 146 135 pd cmd;
#N canvas 467 157 450 300 cmd 0;
#X obj 48 243 outlet;
#X obj 144 245 outlet;
#X obj 102 101 tgl 20 0 empty empty SQR 9 26 2 12 -4032 -258113 -64
0 1;
#X obj 121 101 bng 20 250 50 0 empty empty 2 21 10 2 14 -262144 -258113
-64;
#X obj 36 124 sel 1;
#X obj 87 187 bng 15 250 50 0 empty empty empty 17 7 0 10 -262144 -1
-1;
#X obj 23 184 bng 15 250 50 0 empty empty empty 17 7 0 10 -262144 -1
-1;
#X floatatom 87 168 5 0 0 0 - - -;
#X floatatom 22 164 5 0 0 0 - - -;
#X obj 37 4 inlet;
#X obj 271 228 bng 15 250 50 0 empty empty empty 17 7 0 10 -262144
-1 -1;
#X obj 417 231 bng 15 250 50 0 empty empty empty 17 7 0 10 -262144
-1 -1;
#X msg 50 215 disconnect 3 1;
#X msg 154 216 connect 3 1;
#X obj 208 77 r clock;
#X obj 210 113 spigot;
#X connect 2 0 4 0;
#X connect 2 0 15 1;
#X connect 4 0 7 0;
#X connect 4 1 8 0;
#X connect 5 0 13 0;
#X connect 6 0 12 0;
#X connect 7 0 5 0;
#X connect 8 0 6 0;
#X connect 9 0 2 0;
#X connect 12 0 0 0;
#X connect 12 0 10 0;
#X connect 13 0 1 0;
#X connect 13 0 11 0;
#X connect 14 0 15 0;
#X connect 15 0 3 0;
#X coords 0 -1 1 1 50 33 1 100 100;
#X restore 193 136 pd cmd;
#N canvas 467 157 450 300 cmd 0;
#X obj 48 243 outlet;
#X obj 144 245 outlet;
#X obj 103 101 tgl 20 0 empty empty SINE 8 26 2 12 -4032 -258113 -64
0 1;
#X obj 122 101 bng 20 250 50 0 empty empty empty 17 7 0 10 -262144
-258113 -1;
#X obj 36 124 sel 1;
#X obj 87 187 bng 15 250 50 0 empty empty empty 17 7 0 10 -262144 -1
-1;
#X obj 23 184 bng 15 250 50 0 empty empty empty 17 7 0 10 -262144 -1
-1;
#X floatatom 87 168 5 0 0 0 - - -;
#X floatatom 22 164 5 0 0 0 - - -;
#X obj 37 4 inlet;
#X obj 271 228 bng 15 250 50 0 empty empty empty 17 7 0 10 -262144
-1 -1;
#X obj 417 231 bng 15 250 50 0 empty empty empty 17 7 0 10 -262144
-1 -1;
#X msg 50 215 disconnect 4 1;
#X msg 154 216 connect 4 1;
#X obj 218 66 r clock;
#X obj 219 93 spigot;
#X connect 2 0 4 0;
#X connect 2 0 15 1;
#X connect 4 0 7 0;
#X connect 4 1 8 0;
#X connect 5 0 13 0;
#X connect 6 0 12 0;
#X connect 7 0 5 0;
#X connect 8 0 6 0;
#X connect 9 0 2 0;
#X connect 12 0 0 0;
#X connect 12 0 10 0;
#X connect 13 0 1 0;
#X connect 13 0 11 0;
#X connect 14 0 15 0;
#X connect 15 0 3 0;
#X coords 0 -1 1 1 45 33 1 100 100;
#X restore 102 102 pd cmd;
#N canvas 467 157 450 300 cmd 0;
#X obj 48 243 outlet;
#X obj 144 245 outlet;
#X obj 103 101 tgl 20 0 empty empty W/S 9 26 2 12 -4032 -258113 -64
0 1;
#X obj 122 101 bng 20 250 50 0 empty empty empty 17 7 0 10 -262144
-258113 -1;
#X obj 36 124 sel 1;
#X obj 87 187 bng 15 250 50 0 empty empty empty 17 7 0 10 -262144 -1
-1;
#X obj 23 184 bng 15 250 50 0 empty empty empty 17 7 0 10 -262144 -1
-1;
#X floatatom 87 168 5 0 0 0 - - -;
#X floatatom 22 164 5 0 0 0 - - -;
#X obj 37 4 inlet;
#X obj 271 228 bng 15 250 50 0 empty empty empty 17 7 0 10 -262144
-1 -1;
#X obj 417 231 bng 15 250 50 0 empty empty empty 17 7 0 10 -262144
-1 -1;
#X msg 50 215 disconnect 5 1;
#X msg 154 216 connect 5 1;
#X obj 204 63 r clock;
#X obj 205 90 spigot;
#X connect 2 0 4 0;
#X connect 2 0 15 1;
#X connect 4 0 7 0;
#X connect 4 1 8 0;
#X connect 5 0 13 0;
#X connect 6 0 12 0;
#X connect 7 0 5 0;
#X connect 8 0 6 0;
#X connect 9 0 2 0;
#X connect 12 0 0 0;
#X connect 12 0 10 0;
#X connect 13 0 1 0;
#X connect 13 0 11 0;
#X connect 14 0 15 0;
#X connect 15 0 3 0;
#X coords 0 -1 1 1 45 33 1 100 100;
#X restore 148 102 pd cmd;
#N canvas 467 157 450 300 cmd 0;
#X obj 48 243 outlet;
#X obj 144 245 outlet;
#X obj 101 101 tgl 20 0 empty empty SAW 9 26 2 12 -4032 -258113 -64
0 1;
#X obj 120 101 bng 20 250 50 0 empty empty 1 21 10 2 14 -262144 -258113
-64;
#X obj 36 124 sel 1;
#X obj 87 187 bng 15 250 50 0 empty empty empty 17 7 0 10 -262144 -1
-1;
#X obj 23 184 bng 15 250 50 0 empty empty empty 17 7 0 10 -262144 -1
-1;
#X floatatom 87 168 5 0 0 0 - - -;
#X floatatom 22 164 5 0 0 0 - - -;
#X obj 37 4 inlet;
#X obj 271 228 bng 15 250 50 0 empty empty empty 17 7 0 10 -262144
-1 -1;
#X obj 417 231 bng 15 250 50 0 empty empty empty 17 7 0 10 -262144
-1 -1;
#X msg 50 215 disconnect 6 1;
#X msg 154 216 connect 6 1;
#X obj 217 52 r clock;
#X obj 218 79 spigot;
#X connect 2 0 4 0;
#X connect 2 0 15 1;
#X connect 4 0 7 0;
#X connect 4 1 8 0;
#X connect 5 0 13 0;
#X connect 6 0 12 0;
#X connect 7 0 5 0;
#X connect 8 0 6 0;
#X connect 9 0 2 0;
#X connect 12 0 0 0;
#X connect 12 0 10 0;
#X connect 13 0 1 0;
#X connect 13 0 11 0;
#X connect 14 0 15 0;
#X connect 15 0 3 0;
#X coords 0 -1 1 1 50 33 1 100 100;
#X restore 194 102 pd cmd;
#X msg 254 44 disconnect 0 1;
#X obj 375 27 loadbang;
#X msg 374 72 connect 0 0;
#X obj 776 229 *~;
#X msg 360 191 connect 0 1;
#X obj 807 64 r~ wave2;
#X connect 0 0 1 0;
#X connect 0 0 18 0;
#X connect 0 1 18 1;
#X connect 2 0 0 0;
#X connect 4 0 0 1;
#X connect 5 0 0 2;
#X connect 6 0 0 3;
#X connect 7 0 0 0;
#X connect 7 0 17 0;
#X connect 7 1 0 0;
#X connect 7 1 19 0;
#X connect 8 0 0 4;
#X connect 9 0 0 6;
#X connect 10 0 0 0;
#X connect 10 0 17 0;
#X connect 10 1 0 0;
#X connect 10 1 19 0;
#X connect 11 0 0 0;
#X connect 11 0 17 0;
#X connect 11 1 0 0;
#X connect 11 1 19 0;
#X connect 12 0 0 0;
#X connect 12 0 17 0;
#X connect 12 1 19 0;
#X connect 12 1 0 0;
#X connect 13 0 0 0;
#X connect 13 0 17 0;
#X connect 13 1 19 0;
#X connect 13 1 0 0;
#X connect 14 0 0 0;
#X connect 14 0 17 0;
#X connect 14 1 0 0;
#X connect 14 1 19 0;
#X connect 16 0 17 0;
#X connect 17 0 0 0;
#X connect 18 0 3 0;
#X connect 20 0 0 5;
#X coords 0 -1 1 1 145 70 1 100 100;
#X restore 256 286 pd mat;
#N canvas 132 38 1065 457 mat 0;
#X obj 687 160 matrix~ 7 2;
#X obj 582 298 outlet~;
#X obj 544 38 inlet~;
#X obj 660 299 outlet~;
#X obj 590 65 r~ sine;
#X obj 641 64 r~ wave 1;
#X obj 706 64 r~ squ;
#N canvas 467 157 450 300 cmd 0;
#X obj 48 243 outlet;
#X obj 144 245 outlet;
#X obj 103 102 tgl 20 0 empty empty SINE 7 26 2 12 -4032 -258113 -64
0 1;
#X obj 122 102 bng 20 250 50 0 empty empty empty 17 7 0 10 -262144
-258113 -1;
#X obj 36 124 sel 1;
#X obj 87 187 bng 15 250 50 0 empty empty empty 17 7 0 10 -262144 -1
-1;
#X obj 23 184 bng 15 250 50 0 empty empty empty 17 7 0 10 -262144 -1
-1;
#X floatatom 87 168 5 0 0 0 - - -;
#X floatatom 22 164 5 0 0 0 - - -;
#X obj 37 4 inlet;
#X obj 271 228 bng 15 250 50 0 empty empty empty 17 7 0 10 -262144
-1 -1;
#X obj 417 231 bng 15 250 50 0 empty empty empty 17 7 0 10 -262144
-1 -1;
#X msg 154 216 connect 1 1;
#X msg 50 215 disconnect 1 1;
#X obj 297 84 r clock;
#X obj 239 135 spigot;
#X connect 2 0 4 0;
#X connect 2 0 15 1;
#X connect 4 0 7 0;
#X connect 4 1 8 0;
#X connect 5 0 12 0;
#X connect 6 0 13 0;
#X connect 7 0 5 0;
#X connect 8 0 6 0;
#X connect 9 0 2 0;
#X connect 12 0 1 0;
#X connect 12 0 11 0;
#X connect 13 0 0 0;
#X connect 13 0 10 0;
#X connect 14 0 15 0;
#X connect 15 0 3 0;
#X coords 0 -1 1 1 45 33 1 100 100;
#X restore 102 135 pd cmd;
#X obj 751 63 r~ sine1;
#X obj 872 64 r~ saw;
#N canvas 467 157 450 300 cmd 0;
#X obj 48 243 outlet;
#X obj 144 245 outlet;
#X obj 103 102 tgl 20 0 empty empty W/S 9 26 2 12 -4032 -258113 -64
0 1;
#X obj 122 102 bng 20 250 50 0 empty empty empty 17 7 0 10 -262144
-258113 -1;
#X obj 36 124 sel 1;
#X obj 87 187 bng 15 250 50 0 empty empty empty 17 7 0 10 -262144 -1
-1;
#X obj 23 184 bng 15 250 50 0 empty empty empty 17 7 0 10 -262144 -1
-1;
#X floatatom 87 168 5 0 0 0 - - -;
#X floatatom 22 164 5 0 0 0 - - -;
#X obj 37 4 inlet;
#X obj 271 228 bng 15 250 50 0 empty empty empty 17 7 0 10 -262144
-1 -1;
#X obj 417 231 bng 15 250 50 0 empty empty empty 17 7 0 10 -262144
-1 -1;
#X msg 50 215 disconnect 2 1;
#X msg 154 216 connect 2 1;
#X obj 307 94 r clock;
#X obj 249 145 spigot;
#X connect 2 0 4 0;
#X connect 2 0 15 1;
#X connect 4 0 7 0;
#X connect 4 1 8 0;
#X connect 5 0 13 0;
#X connect 6 0 12 0;
#X connect 7 0 5 0;
#X connect 8 0 6 0;
#X connect 9 0 2 0;
#X connect 12 0 0 0;
#X connect 12 0 10 0;
#X connect 13 0 1 0;
#X connect 13 0 11 0;
#X connect 14 0 15 0;
#X connect 15 0 3 0;
#X coords 0 -1 1 1 45 33 1 100 100;
#X restore 146 135 pd cmd;
#N canvas 467 157 450 300 cmd 0;
#X obj 48 243 outlet;
#X obj 144 245 outlet;
#X obj 102 101 tgl 20 0 empty empty SQR 9 26 2 12 -4032 -258113 -64
0 1;
#X obj 121 101 bng 20 250 50 0 empty empty 2 21 10 2 14 -262144 -258113
-64;
#X obj 36 124 sel 1;
#X obj 87 187 bng 15 250 50 0 empty empty empty 17 7 0 10 -262144 -1
-1;
#X obj 23 184 bng 15 250 50 0 empty empty empty 17 7 0 10 -262144 -1
-1;
#X floatatom 87 168 5 0 0 0 - - -;
#X floatatom 22 164 5 0 0 0 - - -;
#X obj 37 4 inlet;
#X obj 271 228 bng 15 250 50 0 empty empty empty 17 7 0 10 -262144
-1 -1;
#X obj 417 231 bng 15 250 50 0 empty empty empty 17 7 0 10 -262144
-1 -1;
#X msg 50 215 disconnect 3 1;
#X msg 154 216 connect 3 1;
#X obj 208 77 r clock;
#X obj 210 113 spigot;
#X connect 2 0 4 0;
#X connect 2 0 15 1;
#X connect 4 0 7 0;
#X connect 4 1 8 0;
#X connect 5 0 13 0;
#X connect 6 0 12 0;
#X connect 7 0 5 0;
#X connect 8 0 6 0;
#X connect 9 0 2 0;
#X connect 12 0 0 0;
#X connect 12 0 10 0;
#X connect 13 0 1 0;
#X connect 13 0 11 0;
#X connect 14 0 15 0;
#X connect 15 0 3 0;
#X coords 0 -1 1 1 50 33 1 100 100;
#X restore 193 136 pd cmd;
#N canvas 467 157 450 300 cmd 0;
#X obj 48 243 outlet;
#X obj 144 245 outlet;
#X obj 103 101 tgl 20 0 empty empty SINE 8 26 2 12 -4032 -258113 -64
0 1;
#X obj 122 101 bng 20 250 50 0 empty empty empty 17 7 0 10 -262144
-258113 -1;
#X obj 36 124 sel 1;
#X obj 87 187 bng 15 250 50 0 empty empty empty 17 7 0 10 -262144 -1
-1;
#X obj 23 184 bng 15 250 50 0 empty empty empty 17 7 0 10 -262144 -1
-1;
#X floatatom 87 168 5 0 0 0 - - -;
#X floatatom 22 164 5 0 0 0 - - -;
#X obj 37 4 inlet;
#X obj 271 228 bng 15 250 50 0 empty empty empty 17 7 0 10 -262144
-1 -1;
#X obj 417 231 bng 15 250 50 0 empty empty empty 17 7 0 10 -262144
-1 -1;
#X msg 50 215 disconnect 4 1;
#X msg 154 216 connect 4 1;
#X obj 218 66 r clock;
#X obj 219 93 spigot;
#X connect 2 0 4 0;
#X connect 2 0 15 1;
#X connect 4 0 7 0;
#X connect 4 1 8 0;
#X connect 5 0 13 0;
#X connect 6 0 12 0;
#X connect 7 0 5 0;
#X connect 8 0 6 0;
#X connect 9 0 2 0;
#X connect 12 0 0 0;
#X connect 12 0 10 0;
#X connect 13 0 1 0;
#X connect 13 0 11 0;
#X connect 14 0 15 0;
#X connect 15 0 3 0;
#X coords 0 -1 1 1 45 33 1 100 100;
#X restore 102 102 pd cmd;
#N canvas 467 157 450 300 cmd 0;
#X obj 48 243 outlet;
#X obj 144 245 outlet;
#X obj 103 101 tgl 20 0 empty empty W/S 9 26 2 12 -4032 -258113 -64
0 1;
#X obj 122 101 bng 20 250 50 0 empty empty empty 17 7 0 10 -262144
-258113 -1;
#X obj 36 124 sel 1;
#X obj 87 187 bng 15 250 50 0 empty empty empty 17 7 0 10 -262144 -1
-1;
#X obj 23 184 bng 15 250 50 0 empty empty empty 17 7 0 10 -262144 -1
-1;
#X floatatom 87 168 5 0 0 0 - - -;
#X floatatom 22 164 5 0 0 0 - - -;
#X obj 37 4 inlet;
#X obj 271 228 bng 15 250 50 0 empty empty empty 17 7 0 10 -262144
-1 -1;
#X obj 417 231 bng 15 250 50 0 empty empty empty 17 7 0 10 -262144
-1 -1;
#X msg 50 215 disconnect 5 1;
#X msg 154 216 connect 5 1;
#X obj 204 63 r clock;
#X obj 205 90 spigot;
#X connect 2 0 4 0;
#X connect 2 0 15 1;
#X connect 4 0 7 0;
#X connect 4 1 8 0;
#X connect 5 0 13 0;
#X connect 6 0 12 0;
#X connect 7 0 5 0;
#X connect 8 0 6 0;
#X connect 9 0 2 0;
#X connect 12 0 0 0;
#X connect 12 0 10 0;
#X connect 13 0 1 0;
#X connect 13 0 11 0;
#X connect 14 0 15 0;
#X connect 15 0 3 0;
#X coords 0 -1 1 1 45 33 1 100 100;
#X restore 148 102 pd cmd;
#N canvas 467 157 450 300 cmd 0;
#X obj 48 243 outlet;
#X obj 144 245 outlet;
#X obj 101 101 tgl 20 0 empty empty SAW 9 26 2 12 -4032 -258113 -64
0 1;
#X obj 120 101 bng 20 250 50 0 empty empty 1 21 10 2 14 -262144 -258113
-64;
#X obj 36 124 sel 1;
#X obj 87 187 bng 15 250 50 0 empty empty empty 17 7 0 10 -262144 -1
-1;
#X obj 23 184 bng 15 250 50 0 empty empty empty 17 7 0 10 -262144 -1
-1;
#X floatatom 87 168 5 0 0 0 - - -;
#X floatatom 22 164 5 0 0 0 - - -;
#X obj 37 4 inlet;
#X obj 271 228 bng 15 250 50 0 empty empty empty 17 7 0 10 -262144
-1 -1;
#X obj 417 231 bng 15 250 50 0 empty empty empty 17 7 0 10 -262144
-1 -1;
#X msg 50 215 disconnect 6 1;
#X msg 154 216 connect 6 1;
#X obj 217 52 r clock;
#X obj 218 79 spigot;
#X connect 2 0 4 0;
#X connect 2 0 15 1;
#X connect 4 0 7 0;
#X connect 4 1 8 0;
#X connect 5 0 13 0;
#X connect 6 0 12 0;
#X connect 7 0 5 0;
#X connect 8 0 6 0;
#X connect 9 0 2 0;
#X connect 12 0 0 0;
#X connect 12 0 10 0;
#X connect 13 0 1 0;
#X connect 13 0 11 0;
#X connect 14 0 15 0;
#X connect 15 0 3 0;
#X coords 0 -1 1 1 50 33 1 100 100;
#X restore 194 102 pd cmd;
#X msg 254 44 disconnect 0 1;
#X obj 375 27 loadbang;
#X msg 374 72 connect 0 0;
#X obj 776 229 *~;
#X msg 360 191 connect 0 1;
#X obj 807 64 r~ wave2;
#X connect 0 0 1 0;
#X connect 0 0 18 0;
#X connect 0 1 18 1;
#X connect 2 0 0 0;
#X connect 4 0 0 1;
#X connect 5 0 0 2;
#X connect 6 0 0 3;
#X connect 7 0 0 0;
#X connect 7 0 17 0;
#X connect 7 1 0 0;
#X connect 7 1 19 0;
#X connect 8 0 0 4;
#X connect 9 0 0 6;
#X connect 10 0 0 0;
#X connect 10 0 17 0;
#X connect 10 1 0 0;
#X connect 10 1 19 0;
#X connect 11 0 0 0;
#X connect 11 0 17 0;
#X connect 11 1 0 0;
#X connect 11 1 19 0;
#X connect 12 0 0 0;
#X connect 12 0 17 0;
#X connect 12 1 19 0;
#X connect 12 1 0 0;
#X connect 13 0 0 0;
#X connect 13 0 17 0;
#X connect 13 1 19 0;
#X connect 13 1 0 0;
#X connect 14 0 0 0;
#X connect 14 0 17 0;
#X connect 14 1 0 0;
#X connect 14 1 19 0;
#X connect 16 0 17 0;
#X connect 17 0 0 0;
#X connect 18 0 3 0;
#X connect 20 0 0 5;
#X coords 0 -1 1 1 145 70 1 100 100;
#X restore 444 207 pd mat;
#X obj 253 803 loadbang;
#X msg 253 823 1;
#X connect 4 0 5 0;
#X connect 4 0 53 0;
#X connect 5 0 8 0;
#X connect 6 0 8 1;
#X connect 7 0 6 0;
#X connect 7 0 54 0;
#X connect 8 0 55 0;
#X connect 8 0 68 0;
#X connect 9 0 11 0;
#X connect 10 0 6 1;
#X connect 11 0 12 0;
#X connect 12 0 10 0;
#X connect 13 0 30 0;
#X connect 14 0 9 0;
#X connect 15 0 14 0;
#X connect 16 0 17 0;
#X connect 17 0 66 0;
#X connect 18 0 16 1;
#X connect 19 0 49 0;
#X connect 20 0 49 0;
#X connect 21 0 49 0;
#X connect 22 0 49 0;
#X connect 23 0 37 0;
#X connect 24 0 30 1;
#X connect 24 0 37 0;
#X connect 25 0 26 0;
#X connect 26 0 3 0;
#X connect 27 0 13 0;
#X connect 28 0 31 0;
#X connect 29 0 58 0;
#X connect 30 0 28 0;
#X connect 31 0 4 0;
#X connect 31 0 7 0;
#X connect 32 0 33 0;
#X connect 32 0 31 1;
#X connect 32 0 39 0;
#X connect 33 0 34 0;
#X connect 34 0 38 0;
#X connect 35 0 32 0;
#X connect 36 0 35 0;
#X connect 37 0 4 0;
#X connect 37 0 7 0;
#X connect 38 0 37 1;
#X connect 39 0 40 0;
#X connect 40 0 38 0;
#X connect 41 0 42 0;
#X connect 42 0 32 0;
#X connect 43 0 29 0;
#X connect 43 0 19 0;
#X connect 43 0 40 0;
#X connect 44 0 45 0;
#X connect 45 0 67 0;
#X connect 46 0 44 1;
#X connect 47 0 48 0;
#X connect 48 0 46 1;
#X connect 49 2 25 0;
#X connect 50 0 49 0;
#X connect 51 0 49 0;
#X connect 52 0 44 0;
#X connect 52 0 46 0;
#X connect 52 0 16 0;
#X connect 52 0 18 0;
#X connect 56 0 41 0;
#X connect 56 0 23 0;
#X connect 56 0 24 0;
#X connect 56 0 63 0;
#X connect 57 0 15 0;
#X connect 57 0 5 1;
#X connect 58 0 36 0;
#X connect 58 0 27 0;
#X connect 59 0 52 1;
#X connect 60 0 47 0;
#X connect 61 0 18 1;
#X connect 62 0 22 0;
#X connect 62 0 50 0;
#X connect 62 1 20 0;
#X connect 62 1 51 0;
#X connect 62 3 52 0;
#X connect 63 0 37 0;
#X connect 64 0 65 0;
#X connect 65 0 5 1;
#X connect 66 0 49 2;
#X connect 66 1 49 2;
#X connect 67 0 49 0;
#X connect 67 1 49 0;
#X connect 68 0 49 1;
#X connect 68 1 49 1;
#X connect 69 0 70 0;
#X connect 70 0 6 1;
#X coords 0 -1 1 1 500 350 1 100 100;
#X restore 100 495 pd osc 2;
#X obj 640 33 *~ 0.5;
#N canvas 132 38 1065 457 mat 0;
#X obj 687 160 matrix~ 7 2;
#X obj 582 298 outlet~;
#X obj 544 38 inlet~;
#X obj 660 299 outlet~;
#X obj 588 64 r~ sine;
#X obj 706 64 r~ squ;
#X obj 751 63 r~ sine1;
#X obj 872 64 r~ saw;
#X obj 463 295 outlet;
#X obj 407 295 outlet;
#N canvas 272 144 450 300 (subpatch) 0;
#X obj 48 243 outlet;
#X obj 144 245 outlet;
#X obj 102 103 tgl 20 0 empty empty W/S 9 26 2 12 -4032 -258113 -64
0 1;
#X obj 121 103 bng 20 250 50 0 empty empty empty 17 7 0 10 -262144
-258113 -1;
#X obj 36 124 sel 1;
#X obj 87 187 bng 15 250 50 0 empty empty empty 17 7 0 10 -262144 -1
-1;
#X obj 23 184 bng 15 250 50 0 empty empty empty 17 7 0 10 -262144 -1
-1;
#X floatatom 87 168 5 0 0 0 - - -;
#X floatatom 22 164 5 0 0 0 - - -;
#X obj 37 4 inlet;
#X obj 271 228 bng 15 250 50 0 empty empty empty 17 7 0 10 -262144
-1 -1;
#X obj 417 231 bng 15 250 50 0 empty empty empty 17 7 0 10 -262144
-1 -1;
#X msg 50 215 disconnect 2 0;
#X msg 154 216 connect 2 0;
#X obj 263 125 spigot;
#X obj 261 96 r clock;
#X connect 2 0 4 0;
#X connect 2 0 14 1;
#X connect 4 0 7 0;
#X connect 4 1 8 0;
#X connect 5 0 13 0;
#X connect 6 0 12 0;
#X connect 7 0 5 0;
#X connect 8 0 6 0;
#X connect 9 0 2 0;
#X connect 12 0 0 0;
#X connect 12 0 10 0;
#X connect 13 0 1 0;
#X connect 13 0 11 0;
#X connect 14 0 3 0;
#X connect 15 0 14 0;
#X coords 0 -1 1 1 45 35 1 100 100;
#X restore 317 103 pd 1;
#N canvas 467 157 450 300 .. 0;
#X obj 48 243 outlet;
#X obj 144 245 outlet;
#X obj 103 102 tgl 20 0 empty empty SQR 9 26 2 12 -4032 -258113 -64
0 1;
#X obj 122 102 bng 20 250 50 0 empty empty OSC_2 22 10 2 12 -262144
-258113 -64;
#X obj 36 124 sel 1;
#X obj 87 187 bng 15 250 50 0 empty empty empty 17 7 0 10 -262144 -1
-1;
#X obj 23 184 bng 15 250 50 0 empty empty empty 17 7 0 10 -262144 -1
-1;
#X floatatom 87 168 5 0 0 0 - - -;
#X floatatom 22 164 5 0 0 0 - - -;
#X obj 37 4 inlet;
#X obj 271 228 bng 15 250 50 0 empty empty empty 17 7 0 10 -262144
-1 -1;
#X obj 417 231 bng 15 250 50 0 empty empty empty 17 7 0 10 -262144
-1 -1;
#X msg 50 215 disconnect 3 1;
#X msg 154 216 connect 3 1;
#X obj 273 135 spigot;
#X obj 271 106 r clock;
#X connect 2 0 4 0;
#X connect 2 0 14 1;
#X connect 4 0 7 0;
#X connect 4 1 8 0;
#X connect 5 0 13 0;
#X connect 6 0 12 0;
#X connect 7 0 5 0;
#X connect 8 0 6 0;
#X connect 9 0 2 0;
#X connect 12 0 0 0;
#X connect 12 0 10 0;
#X connect 13 0 1 0;
#X connect 13 0 11 0;
#X connect 14 0 3 0;
#X connect 15 0 14 0;
#X coords 0 -1 1 1 80 35 1 100 100;
#X restore 364 103 pd ..;
#N canvas 467 157 450 300 ... 0;
#X obj 48 243 outlet;
#X obj 144 245 outlet;
#X obj 103 101 tgl 20 0 empty empty SINE 8 26 2 12 -4032 -258113 -64
0 1;
#X obj 122 101 bng 20 250 50 0 empty empty empty 17 7 0 10 -262144
-258113 -1;
#X obj 36 124 sel 1;
#X obj 87 187 bng 15 250 50 0 empty empty empty 17 7 0 10 -262144 -1
-1;
#X obj 23 184 bng 15 250 50 0 empty empty empty 17 7 0 10 -262144 -1
-1;
#X floatatom 87 168 5 0 0 0 - - -;
#X floatatom 22 164 5 0 0 0 - - -;
#X obj 37 4 inlet;
#X obj 271 228 bng 15 250 50 0 empty empty empty 17 7 0 10 -262144
-1 -1;
#X obj 417 231 bng 15 250 50 0 empty empty empty 17 7 0 10 -262144
-1 -1;
#X msg 50 215 disconnect 4 1;
#X msg 154 216 connect 4 1;
#X obj 283 145 spigot;
#X obj 281 116 r clock;
#X connect 2 0 4 0;
#X connect 2 0 14 1;
#X connect 4 0 7 0;
#X connect 4 1 8 0;
#X connect 5 0 13 0;
#X connect 6 0 12 0;
#X connect 7 0 5 0;
#X connect 8 0 6 0;
#X connect 9 0 2 0;
#X connect 12 0 0 0;
#X connect 12 0 10 0;
#X connect 13 0 1 0;
#X connect 13 0 11 0;
#X connect 14 0 3 0;
#X connect 15 0 14 0;
#X coords 0 -1 1 1 45 33 1 100 100;
#X restore 100 103 pd ...;
#N canvas 467 157 450 300 ... 0;
#X obj 48 243 outlet;
#X obj 144 245 outlet;
#X obj 102 102 tgl 20 0 empty empty W/S 10 26 2 12 -4032 -258113 -64
0 1;
#X obj 121 102 bng 20 250 50 0 empty empty empty 17 7 0 10 -262144
-258113 -1;
#X obj 36 124 sel 1;
#X obj 87 187 bng 15 250 50 0 empty empty empty 17 7 0 10 -262144 -1
-1;
#X obj 23 184 bng 15 250 50 0 empty empty empty 17 7 0 10 -262144 -1
-1;
#X floatatom 87 168 5 0 0 0 - - -;
#X floatatom 22 164 5 0 0 0 - - -;
#X obj 37 4 inlet;
#X obj 271 228 bng 15 250 50 0 empty empty empty 17 7 0 10 -262144
-1 -1;
#X obj 417 231 bng 15 250 50 0 empty empty empty 17 7 0 10 -262144
-1 -1;
#X msg 50 215 disconnect 5 0;
#X msg 154 216 connect 5 0;
#X obj 293 155 spigot;
#X obj 291 126 r clock;
#X connect 2 0 4 0;
#X connect 2 0 14 1;
#X connect 4 0 7 0;
#X connect 4 1 8 0;
#X connect 5 0 13 0;
#X connect 6 0 12 0;
#X connect 7 0 5 0;
#X connect 8 0 6 0;
#X connect 9 0 2 0;
#X connect 12 0 0 0;
#X connect 12 0 10 0;
#X connect 13 0 1 0;
#X connect 13 0 11 0;
#X connect 14 0 3 0;
#X connect 15 0 14 0;
#X coords 0 -1 1 1 45 33 1 100 100;
#X restore 144 102 pd ...;
#N canvas 467 157 450 300 ... 0;
#X obj 48 243 outlet;
#X obj 144 245 outlet;
#X obj 102 101 tgl 20 0 empty empty SAW 9 26 2 12 -4032 -258113 -64
0 1;
#X obj 121 101 bng 20 250 50 0 empty empty OSC_1 22 10 2 12 -262144
-258113 -64;
#X obj 36 124 sel 1;
#X obj 87 187 bng 15 250 50 0 empty empty empty 17 7 0 10 -262144 -1
-1;
#X obj 23 184 bng 15 250 50 0 empty empty empty 17 7 0 10 -262144 -1
-1;
#X floatatom 87 168 5 0 0 0 - - -;
#X floatatom 22 164 5 0 0 0 - - -;
#X obj 37 4 inlet;
#X obj 271 228 bng 15 250 50 0 empty empty empty 17 7 0 10 -262144
-1 -1;
#X obj 417 231 bng 15 250 50 0 empty empty empty 17 7 0 10 -262144
-1 -1;
#X msg 50 215 disconnect 6 1;
#X msg 154 216 connect 6 1;
#X obj 303 165 spigot;
#X obj 301 136 r clock;
#X connect 2 0 4 0;
#X connect 2 0 14 1;
#X connect 4 0 7 0;
#X connect 4 1 8 0;
#X connect 5 0 13 0;
#X connect 6 0 12 0;
#X connect 7 0 5 0;
#X connect 8 0 6 0;
#X connect 9 0 2 0;
#X connect 12 0 0 0;
#X connect 12 0 10 0;
#X connect 13 0 1 0;
#X connect 13 0 11 0;
#X connect 14 0 3 0;
#X connect 15 0 14 0;
#X coords 0 -1 1 1 80 33 1 100 100;
#X restore 191 103 pd ...;
#N canvas 467 157 450 300 (subpatch) 0;
#X obj 48 243 outlet;
#X obj 144 245 outlet;
#X obj 103 102 tgl 20 0 empty empty SINE 7 26 2 12 -4032 -258113 -64
0 1;
#X obj 122 102 bng 20 250 50 0 empty empty empty 17 7 0 10 -262144
-258113 -1;
#X obj 36 124 sel 1;
#X obj 87 187 bng 15 250 50 0 empty empty empty 17 7 0 10 -262144 -1
-1;
#X obj 23 184 bng 15 250 50 0 empty empty empty 17 7 0 10 -262144 -1
-1;
#X floatatom 87 168 5 0 0 0 - - -;
#X floatatom 22 164 5 0 0 0 - - -;
#X obj 37 4 inlet;
#X obj 271 228 bng 15 250 50 0 empty empty empty 17 7 0 10 -262144
-1 -1;
#X obj 417 231 bng 15 250 50 0 empty empty empty 17 7 0 10 -262144
-1 -1;
#X msg 154 216 connect 1 1;
#X msg 50 215 disconnect 1 1;
#X obj 253 115 spigot;
#X obj 251 86 r clock;
#X connect 2 0 4 0;
#X connect 2 0 14 1;
#X connect 4 0 7 0;
#X connect 4 1 8 0;
#X connect 5 0 12 0;
#X connect 6 0 13 0;
#X connect 7 0 5 0;
#X connect 8 0 6 0;
#X connect 9 0 2 0;
#X connect 12 0 1 0;
#X connect 12 0 11 0;
#X connect 13 0 0 0;
#X connect 13 0 10 0;
#X connect 14 0 3 0;
#X connect 15 0 14 0;
#X coords 0 -1 1 1 45 33 1 100 100;
#X restore 272 103 pd;
#X obj 650 32 inlet~;
#X obj 811 57 inlet~;
#X obj 644 216 *~ 0.5;
#X msg 200 -12 \; pd dsp 1;
#X obj 200 -33 loadbang;
#X obj 784 344 dac~;
#X obj 831 178 s~ out1;
#X obj 871 227 s~ out2;
#X connect 0 0 18 0;
#X connect 0 1 3 0;
#X connect 0 1 21 0;
#X connect 0 1 21 1;
#X connect 2 0 0 0;
#X connect 4 0 0 1;
#X connect 5 0 0 3;
#X connect 6 0 0 4;
#X connect 7 0 0 6;
#X connect 10 0 0 0;
#X connect 10 0 9 0;
#X connect 10 1 0 0;
#X connect 10 1 8 0;
#X connect 11 0 0 0;
#X connect 11 0 9 0;
#X connect 11 1 0 0;
#X connect 11 1 8 0;
#X connect 12 0 0 0;
#X connect 12 0 9 0;
#X connect 12 1 8 0;
#X connect 12 1 0 0;
#X connect 13 0 0 0;
#X connect 13 0 9 0;
#X connect 13 1 8 0;
#X connect 13 1 0 0;
#X connect 14 0 0 0;
#X connect 14 0 9 0;
#X connect 14 1 0 0;
#X connect 14 1 8 0;
#X connect 15 0 0 0;
#X connect 15 0 9 0;
#X connect 15 1 0 0;
#X connect 15 1 8 0;
#X connect 16 0 0 2;
#X connect 16 0 23 0;
#X connect 17 0 0 5;
#X connect 17 0 22 0;
#X connect 18 0 1 0;
#X connect 18 0 21 0;
#X connect 18 0 21 1;
#X connect 20 0 19 0;
#X coords 0 -1 1 1 350 40 1 100 100;
#X restore 180 103 pd mat;
#X connect 0 0 4 2;
#X connect 1 3 0 0;
#X connect 2 3 3 0;
#X connect 3 0 4 1;
#X coords 0 -1 1 1 500 750 1 100 100;
#X restore 100 100 pd face;
#X coords 0 -1 1 1 500 750 1 100 100;
#X restore 356 -22 pd full face;
#X obj 360 179 cnv 15 80 20 empty empty CV_INPUT 20 12 2 12 -191407
-1088 0;
#X obj 557 177 cnv 15 80 20 empty empty CV_INPUT 20 12 2 12 -191407
-1088 0;
#X obj 755 457 cnv 15 80 20 empty empty CV_INPUT 20 12 2 12 -191407
-1088 0;
#X obj 562 537 cnv 15 80 20 empty empty CV_INPUT 20 12 2 12 -191407
-1088 0;
#X obj 362 537 cnv 15 80 20 empty empty CV_INPUT 20 12 2 12 -191407
-1088 0;
#X obj 744 106 cnv 15 80 20 empty empty CV_INPUT 20 12 2 12 -191407
-1088 0;
#X obj 779 -19 cnv 15 80 20 empty empty OUTPUTS 20 12 2 12 -191407
-1024 0;
#X obj 365 -15 cnv 15 80 20 empty empty OUTPUTS 20 12 2 12 -191407
-1024 0;
